g Dy_TraningPro_Fly02b
v 0.9351559 0.1745995 1.404804
v 0.9352846 -0.001752262 1.403959
v 0.8973868 -0.001752129 1.514402
v 0.8973873 0.1745993 1.5144
v 0.8350054 0.1745993 1.641001
v 0.8350054 -0.001752109 1.641001
v 0.7345663 -0.001752109 1.771059
v 0.7345663 0.1745993 1.771059
v 0.5789027 -0.001752148 1.887756
v 0.5789026 0.1745993 1.887756
v 0.4204862 0.1745993 1.953377
v 0.4204863 -0.001752119 1.953377
v 0.1729246 -0.001752109 1.988596
v 0.1729246 0.1745993 1.988596
v 0.001017418 -0.001752109 2
v 0.001017418 0.1745993 2
v 0.9517248 0.1745993 1.297319
v 0.9517223 -0.001752129 1.297318
v -0.02654648 0.1745993 1.996503
v 0.001017418 0.1745993 2
v 0.001017418 -0.001752109 2
v -0.02654648 -0.001752109 1.996503
v -0.04253937 -0.001752109 1.982086
v -0.04253937 0.1745993 1.982086
v -0.04253937 0.1745993 1.982086
v -0.04253937 -0.001752109 1.982086
v -0.04806228 -0.001752138 1.955758
v -0.04806228 0.1745993 1.955758
v 0.9490368 -0.001752129 1.285413
v 0.9517223 -0.001752129 1.297318
v 0.9517248 0.1745993 1.297319
v 0.9490374 0.1745993 1.285413
v 0.9354748 -0.001752129 1.281443
v 0.9490368 -0.001752129 1.285413
v 0.9490374 0.1745993 1.285413
v 0.9354748 0.1745993 1.281443
v 0.8121524 0.1745993 1.281443
v 0.8121526 -0.001752129 1.281443
v 0.8068052 0.1724646 1.282366
v 0.8068037 0.0003812027 1.282367
v 0.8031082 0.13337 1.285491
v 0.8031116 0.03701731 1.28549
v 0.9245178 0.1846168 1.403921
v 0.8867821 0.1846164 1.513917
v 0.7573712 0.1848577 1.506508
v 0.7947279 0.1848577 1.390656
v 0.8244975 0.1846133 1.640664
v 0.711148 0.1848596 1.586825
v 0.9351559 0.1745995 1.404804
v 0.9517248 0.1745993 1.297319
v 0.9406823 0.1846098 1.298115
v 0.8973873 0.1745993 1.5144
v 0.8350054 0.1745993 1.641001
v 0.7297042 0.1848629 1.766275
v 0.7345663 0.1745993 1.771059
v 0.5749598 0.1846142 1.87945
v 0.5789026 0.1745993 1.887756
v 0.4188846 0.1846052 1.944046
v 0.4204862 0.1745993 1.953377
v 0.1726632 0.1846056 1.978827
v 0.1729246 0.1745993 1.988596
v 0.002077751 0.1846057 1.989978
v 0.001017418 0.1745993 2
v -0.02143188 0.1846059 1.986978
v -0.03300018 0.1846038 1.97655
v -0.03769199 0.1846015 1.954129
v -0.02654648 0.1745993 1.996503
v -0.04253937 0.1745993 1.982086
v -0.04806228 0.1745993 1.955758
v -0.03755115 0.1846039 1.77035
v -0.04806228 0.1745993 1.770826
v -0.04700172 0.1723936 1.766037
v -0.03648125 0.1823958 1.765565
v -0.03309624 0.1395719 1.763083
v 0.3814253 0.1825866 1.765782
v 0.3820581 0.1393063 1.763487
v -0.04361301 0.1334337 1.763547
v 0.3814694 0.1847901 1.770344
v 0.517239 0.182659 1.741972
v 0.516828 0.1392056 1.739748
v 0.6302129 0.1826485 1.67097
v 0.629109 0.1392095 1.669752
v 0.7047583 0.1392111 1.585006
v 0.7065937 0.1826657 1.585372
v 0.6330017 0.1848608 1.673916
v 0.5177057 0.1848607 1.746449
v 0.7495561 0.1392102 1.506307
v 0.7519869 0.1827049 1.506164
v 0.7870316 0.1392096 1.389853
v 0.7893098 0.1827095 1.390148
v 0.8015875 0.139615 1.294661
v 0.8046616 0.1825049 1.291542
v 0.8031082 0.13337 1.285491
v 0.8068052 0.1724646 1.282366
v 0.8100203 0.1846212 1.290604
v 0.8121524 0.1745993 1.281443
v 0.9329761 0.1846103 1.290586
v 0.9354748 0.1745993 1.281443
v 0.9394042 0.1846145 1.292465
v 0.9490374 0.1745993 1.285413
v 0.8867866 -0.01177188 1.513887
v 0.9246377 -0.01177225 1.403092
v 0.7942989 -0.01205049 1.391375
v 0.7575176 -0.01205059 1.506033
v 0.8244982 -0.01176825 1.640659
v 0.7110813 -0.0120528 1.58659
v 0.7297042 -0.01205648 1.766275
v 0.6328994 -0.01205406 1.673858
v 0.8973868 -0.001752129 1.514402
v 0.9352846 -0.001752262 1.403959
v 0.9406796 -0.0117641 1.298114
v 0.9517223 -0.001752129 1.297318
v 0.8350054 -0.001752109 1.641001
v 0.7345663 -0.001752109 1.771059
v 0.5789027 -0.001752148 1.887756
v 0.574964 -0.01176928 1.879449
v 0.4204863 -0.001752119 1.953377
v 0.4188848 -0.01175895 1.944046
v 0.1729246 -0.001752109 1.988596
v 0.1726633 -0.01175929 1.978827
v 0.001017418 -0.001752109 2
v 0.002077751 -0.01175955 1.989978
v -0.02654648 -0.001752109 1.996503
v -0.02143188 -0.01175965 1.986978
v -0.03769199 -0.0117546 1.954129
v -0.03300018 -0.01175734 1.97655
v -0.04806228 -0.001752138 1.955758
v -0.04806228 -0.001752109 1.770826
v -0.03755115 -0.01175737 1.77035
v -0.04253937 -0.001752109 1.982086
v -0.03648048 -0.009550486 1.765565
v 0.3815129 -0.01197239 1.770348
v 0.38147 -0.009767666 1.765787
v -0.03309727 0.0308153 1.763084
v 0.3821318 0.03076598 1.763496
v -0.04361393 0.03695349 1.763548
v -0.04700089 0.0004522514 1.766037
v 0.5169299 0.03074726 1.73976
v 0.5173004 -0.009850082 1.741979
v 0.630112 -0.009839726 1.670913
v 0.6289033 0.03073964 1.669639
v 0.5177657 -0.01205399 1.746455
v 0.7065297 -0.009857005 1.585133
v 0.7521381 -0.009896116 1.505674
v 0.7498249 0.03073824 1.505378
v 0.7862465 0.03073932 1.390719
v 0.7888739 -0.009900455 1.39092
v 0.8046389 -0.00966196 1.29154
v 0.801542 0.03077305 1.294657
v 0.8068037 0.0003812027 1.282367
v 0.8031116 0.03701731 1.28549
v 0.8099988 -0.01177726 1.290601
v 0.8121526 -0.001752129 1.281443
v 0.9354748 -0.001752129 1.281443
v 0.9329762 -0.01176482 1.290586
v 0.9490368 -0.001752129 1.285413
v 0.9394025 -0.01176967 1.292465
v 0.7870316 0.1392096 1.389853
v 0.7495561 0.1392102 1.506307
v 0.7046216 0.03073649 1.584548
v 0.7047583 0.1392111 1.585006
v 0.629109 0.1392095 1.669752
v 0.516828 0.1392056 1.739748
v 0.3820581 0.1393063 1.763487
v -0.03309624 0.1395719 1.763083
v -0.04361301 0.1334337 1.763547
v -0.04806228 -0.001752138 1.955758
v -0.04806228 -0.001752109 1.770826
v -0.04806228 0.1745993 1.770826
v -0.04806228 0.1745993 1.955758
v -0.04361393 0.03695349 1.763548
v -0.04361301 0.1334337 1.763547
v -0.04700172 0.1723936 1.766037
v -0.04700089 0.0004522514 1.766037
v -0.04806228 0.1745993 1.770826
v -0.04806228 -0.001752109 1.770826
v 0.8015875 0.139615 1.294661
v 0.8031082 0.13337 1.285491
v 0.801542 0.03077305 1.294657
v 0.8031116 0.03701731 1.28549
vt 0.870352 0.9377952
vt 0.916087 0.9381148
vt 0.9161444 0.9061382
vt 0.870409 0.9060529
vt 0.8704816 0.8680069
vt 0.9162171 0.8680988
vt 0.9163085 0.8241961
vt 0.8705733 0.8240959
vt 0.9164122 0.778956
vt 0.8706768 0.7788467
vt 0.8707817 0.7369354
vt 0.916517 0.7370533
vt 0.9166831 0.6748849
vt 0.870948 0.6747621
vt 0.9168015 0.6317409
vt 0.8710662 0.6316166
vt 0.8703005 0.9683743
vt 0.9160359 0.9684526
vt 0.8710861 0.6245598
vt 0.8710662 0.6316166
vt 0.9168015 0.6317409
vt 0.9168214 0.6246841
vt 0.9168371 0.6190078
vt 0.8711017 0.6188835
vt 0.7815611 0.9202178
vt 0.9001551 0.9202178
vt 0.9001552 0.9019189
vt 0.7815611 0.9019189
vt 0.9160303 0.9719431
vt 0.9160359 0.9684526
vt 0.8703005 0.9683743
vt 0.8702948 0.9718648
vt 0.913302 0.9351999
vt 0.9271201 0.9351999
vt 0.9271212 0.7541401
vt 0.913302 0.7541407
vt 0.7970021 0.7541422
vt 0.797002 0.9352012
vt 0.7919161 0.7563359
vt 0.7919149 0.9330133
vt 0.7871398 0.7637517
vt 0.7871429 0.9256146
vt 0.981254 0.7195128
vt 0.9734311 0.7510535
vt 0.9414898 0.7474835
vt 0.9492957 0.7150718
vt 0.9584739 0.7866472
vt 0.930832 0.7699274
vt 0.9849534 0.7199894
vt 0.9873666 0.688988
vt 0.9836832 0.6893935
vt 0.9771094 0.751659
vt 0.9621155 0.7874127
vt 0.9358717 0.8229482
vt 0.9381784 0.8253044
vt 0.9004439 0.8508967
vt 0.9020915 0.8542183
vt 0.8615168 0.866318
vt 0.8622761 0.8699604
vt 0.7990134 0.8717213
vt 0.7991709 0.8754511
vt 0.7555867 0.8717514
vt 0.7551425 0.875449
vt 0.7496779 0.8704571
vt 0.7467655 0.8675863
vt 0.7454023 0.861703
vt 0.7478594 0.8737466
vt 0.7434989 0.8694486
vt 0.7416759 0.8621851
vt 0.7452865 0.8133041
vt 0.7416731 0.8132915
vt 0.7416629 0.811897
vt 0.7452577 0.8119478
vt 0.7452419 0.8099715
vt 0.8429384 0.8117104
vt 0.8423638 0.8099005
vt 0.7413052 0.810163
vt 0.8432033 0.8129547
vt 0.8799898 0.8116202
vt 0.8792031 0.8098736
vt 0.9080359 0.7927749
vt 0.9068685 0.7914577
vt 0.9281226 0.7684377
vt 0.929639 0.7693787
vt 0.9088715 0.7936569
vt 0.8803441 0.812822
vt 0.9383858 0.7465
vt 0.9401391 0.7472027
vt 0.9459596 0.7140951
vt 0.9478785 0.7146909
vt 0.9485757 0.6865336
vt 0.9507571 0.6865506
vt 0.9488239 0.6825753
vt 0.9508569 0.6829423
vt 0.9521092 0.6865352
vt 0.9524424 0.6829016
vt 0.9817717 0.6872473
vt 0.9825892 0.6836336
vt 0.9832323 0.6878704
vt 0.9861736 0.6852456
vt 0.9734311 0.7510535
vt 0.981254 0.7195128
vt 0.9492957 0.7150718
vt 0.9414898 0.7474835
vt 0.9584739 0.7866472
vt 0.930832 0.7699274
vt 0.9358717 0.8229482
vt 0.9088715 0.7936569
vt 0.9771094 0.751659
vt 0.9849534 0.7199894
vt 0.9836832 0.6893935
vt 0.9873666 0.688988
vt 0.9621155 0.7874127
vt 0.9381784 0.8253044
vt 0.9020915 0.8542183
vt 0.9004439 0.8508967
vt 0.8622761 0.8699604
vt 0.8615168 0.866318
vt 0.7991709 0.8754511
vt 0.7990134 0.8717213
vt 0.7551425 0.875449
vt 0.7555867 0.8717514
vt 0.7478594 0.8737466
vt 0.7496779 0.8704571
vt 0.7454023 0.861703
vt 0.7467655 0.8675863
vt 0.7416759 0.8621851
vt 0.7416731 0.8132915
vt 0.7452865 0.8133041
vt 0.7434989 0.8694486
vt 0.7452577 0.8119478
vt 0.8432033 0.8129547
vt 0.8429384 0.8117104
vt 0.7452419 0.8099715
vt 0.8423638 0.8099005
vt 0.7413052 0.810163
vt 0.7416629 0.811897
vt 0.8792031 0.8098736
vt 0.8799898 0.8116202
vt 0.9080359 0.7927749
vt 0.9068685 0.7914577
vt 0.8803441 0.812822
vt 0.929639 0.7693787
vt 0.9401391 0.7472027
vt 0.9383858 0.7465
vt 0.9459596 0.7140951
vt 0.9478785 0.7146909
vt 0.9507571 0.6865506
vt 0.9485757 0.6865336
vt 0.9508569 0.6829423
vt 0.9488239 0.6825753
vt 0.9521092 0.6865352
vt 0.9524424 0.6829016
vt 0.9825892 0.6836336
vt 0.9817717 0.6872473
vt 0.9861736 0.6852456
vt 0.9832323 0.6878704
vt 0.9459596 0.7140951
vt 0.9383858 0.7465
vt 0.9281226 0.7684377
vt 0.9281226 0.7684377
vt 0.9068685 0.7914577
vt 0.8792031 0.8098736
vt 0.8423638 0.8099005
vt 0.7452419 0.8099715
vt 0.7877828 0.7716279
vt 0.9001552 0.9019189
vt 0.9001552 0.7775574
vt 0.7815612 0.7775574
vt 0.7815611 0.9019189
vt 0.8939438 0.7716283
vt 0.7877828 0.7716279
vt 0.7830446 0.7743012
vt 0.8986731 0.7743006
vt 0.7815612 0.7775574
vt 0.9001552 0.7775574
vt 0.9485757 0.6865336
vt 0.9488239 0.6825753
vt 0.9485757 0.6865336
vt 0.7871429 0.9256146
vn 0.9707769 -0.00022457 0.2399841
vn 0.970908 -0.0002232697 0.2394526
vn 0.9231817 -0.0002176843 0.384364
vn 0.9231818 -0.0002176862 0.3843635
vn 0.8484676 -1.399971E-07 0.5292472
vn 0.8484678 -1.39997E-07 0.5292471
vn 0.70203 1.084009E-07 0.7121474
vn 0.70203 1.084009E-07 0.7121474
vn 0.4951462 5.254342E-07 0.8688096
vn 0.4951462 5.254343E-07 0.8688096
vn 0.2638543 2.975883E-07 0.9645626
vn 0.2638543 2.975885E-07 0.9645625
vn 0.1035919 0 0.9946198
vn 0.103592 0 0.9946198
vn 0.06619153 0 0.997807
vn 0.06619153 0 0.997807
vn 0.9883272 -1.157915E-05 0.152346
vn 0.9883272 -1.157915E-05 0.152346
vn -0.3887896 0.3745043 0.8417773
vn -0.06304798 0.4987767 0.8644344
vn -0.06304811 -0.4987482 0.8644507
vn -0.3887938 -0.3744852 0.841784
vn -0.802404 -0.378148 0.4616837
vn -0.8023981 0.3781628 0.461682
vn -0.8023981 0.3781628 0.461682
vn -0.802404 -0.378148 0.4616837
vn -0.8491443 -0.5124629 0.127811
vn -0.8491352 0.5124778 0.127812
vn 0.6800408 -0.376859 -0.6289052
vn 0.8486692 -0.5188316 -0.1028314
vn 0.8486629 0.5188333 -0.1028746
vn 0.6800129 0.376893 -0.628915
vn 0.1351342 -0.3574213 -0.9241151
vn 0.6800408 -0.376859 -0.6289052
vn 0.6800129 0.376893 -0.628915
vn 0.1351329 0.3574867 -0.92409
vn -0.1373589 0.3719032 -0.9180526
vn -0.1371601 -0.3716717 -0.9181761
vn -0.6368195 0.2103747 -0.741757
vn -0.6339597 -0.2113061 -0.7439387
vn -0.8679057 0.01119298 -0.4966027
vn -0.8676844 -0.01174837 -0.4969767
vn 0.3778863 0.9208801 0.09582175
vn 0.366387 0.9171152 0.1570356
vn -0.1709855 0.9826534 -0.07180671
vn -0.1757183 0.9835656 -0.04149533
vn 0.3721104 0.8955361 0.2440262
vn -0.1697083 0.9782662 -0.1191404
vn 0.6694053 0.7252738 0.160856
vn 0.8486629 0.5188333 -0.1028746
vn 0.3963539 0.9180179 -0.01211784
vn 0.6551172 0.707415 0.265303
vn 0.6443412 0.6624893 0.3820108
vn 0.3308841 0.8819321 0.3357251
vn 0.5559039 0.61212 0.5623876
vn 0.2222959 0.8950418 0.3866327
vn 0.3743273 0.6497469 0.661595
vn 0.1137029 0.9065195 0.4065636
vn 0.1882211 0.6876356 0.7012348
vn 0.04143789 0.9176331 0.3952624
vn 0.07317355 0.6970551 0.713274
vn -0.01075156 0.9155222 0.4021237
vn -0.06304798 0.4987767 0.8644344
vn -0.1722307 0.9060025 0.3866474
vn -0.3638022 0.9077752 0.2087875
vn -0.3898682 0.9200311 0.03931538
vn -0.3887896 0.3745043 0.8417773
vn -0.8023981 0.3781628 0.461682
vn -0.8491352 0.5124778 0.127812
vn -0.3683733 0.9015816 -0.2268295
vn -0.8028198 0.5459145 -0.2397032
vn -0.6608898 0.2238054 -0.7163349
vn -0.2309801 0.5718906 -0.78714
vn -0.03428067 0.03173884 -0.9989082
vn -0.07212947 0.5684929 -0.8195199
vn -0.08701138 0.02662488 -0.9958515
vn -0.3305232 0.01007286 -0.9437441
vn -0.01779447 0.9778764 -0.2084254
vn -0.3032187 0.5711127 -0.7628163
vn -0.3587576 0.02400784 -0.933122
vn -0.5359389 0.5528746 -0.6380432
vn -0.6445792 0.02118296 -0.7642441
vn -0.8112899 0.02182036 -0.5842367
vn -0.6682609 0.5612326 -0.4883085
vn -0.1430364 0.9752306 -0.1687182
vn -0.0688979 0.9790241 -0.1917418
vn -0.9145792 0.02535329 -0.4036115
vn -0.7396387 0.5854583 -0.3319233
vn -0.9727961 0.0285134 -0.2299016
vn -0.7820461 0.5945227 -0.1869402
vn -0.9817785 0.03588012 -0.1866108
vn -0.7344643 0.5806736 -0.3512554
vn -0.8679057 0.01119298 -0.4966027
vn -0.6368195 0.2103747 -0.741757
vn -0.1910009 0.8876423 -0.4190583
vn -0.1373589 0.3719032 -0.9180526
vn 0.05686687 0.9043989 -0.4228815
vn 0.1351329 0.3574867 -0.92409
vn 0.3049033 0.8987486 -0.3150953
vn 0.6800129 0.376893 -0.628915
vn 0.3666189 -0.9170548 0.156847
vn 0.3778509 -0.9209281 0.0954987
vn -0.1759997 -0.9835024 -0.04179738
vn -0.1709143 -0.9826743 -0.07169091
vn 0.3724339 -0.8953636 0.2441661
vn -0.1697851 -0.9782346 -0.1192903
vn 0.3312177 -0.8816823 0.3360523
vn -0.1432921 -0.9751872 -0.1687521
vn 0.6551492 -0.7075654 0.2648219
vn 0.6694237 -0.7253574 0.160401
vn 0.3963575 -0.9180169 -0.01207464
vn 0.8486692 -0.5188316 -0.1028314
vn 0.644489 -0.6622908 0.3821058
vn 0.5563317 -0.6113358 0.5628175
vn 0.3744882 -0.6493348 0.6619086
vn 0.2224462 -0.8948624 0.3869615
vn 0.1882313 -0.6875928 0.7012739
vn 0.1137174 -0.9064701 0.4066696
vn 0.07317672 -0.6970231 0.713305
vn 0.04142282 -0.9176116 0.3953139
vn -0.06304811 -0.4987482 0.8644507
vn -0.01075339 -0.9155129 0.4021446
vn -0.3887938 -0.3744852 0.841784
vn -0.1722415 -0.9059947 0.3866605
vn -0.3898829 -0.9200249 0.03931354
vn -0.3638189 -0.9077685 0.2087871
vn -0.8491443 -0.5124629 0.127811
vn -0.8028633 -0.5458694 -0.2396604
vn -0.3684341 -0.9015604 -0.2268152
vn -0.802404 -0.378148 0.4616837
vn -0.2312848 -0.572948 -0.786281
vn -0.01783533 -0.9778703 -0.2084501
vn -0.07203337 -0.5697685 -0.8186421
vn -0.03499112 -0.03369452 -0.9988194
vn -0.08709633 -0.02846302 -0.9957932
vn -0.330389 -0.01073295 -0.9437839
vn -0.6618729 -0.2249514 -0.7150672
vn -0.359287 -0.02565441 -0.9328744
vn -0.3033726 -0.5724388 -0.7617604
vn -0.535934 -0.5548035 -0.6363708
vn -0.6449969 -0.02202846 -0.7638676
vn -0.06903397 -0.9790163 -0.1917328
vn -0.6669402 -0.5636807 -0.4872933
vn -0.737776 -0.5883912 -0.3308811
vn -0.9150697 -0.02645995 -0.4024268
vn -0.9725151 -0.0296694 -0.230942
vn -0.7800047 -0.5971007 -0.187252
vn -0.7320684 -0.5822981 -0.3535604
vn -0.9810932 -0.03738712 -0.1898901
vn -0.6339597 -0.2113061 -0.7439387
vn -0.8676844 -0.01174837 -0.4969767
vn -0.1907957 -0.8874328 -0.4195952
vn -0.1371601 -0.3716717 -0.9181761
vn 0.1351342 -0.3574213 -0.9241151
vn 0.05687119 -0.9043662 -0.4229507
vn 0.6800408 -0.376859 -0.6289052
vn 0.304904 -0.8987666 -0.3150431
vn -0.9727961 0.0285134 -0.2299016
vn -0.9145792 0.02535329 -0.4036115
vn -0.8114578 -0.02232688 -0.5839844
vn -0.8112899 0.02182036 -0.5842367
vn -0.6445792 0.02118296 -0.7642441
vn -0.3587576 0.02400784 -0.933122
vn -0.08701138 0.02662488 -0.9958515
vn -0.03428067 0.03173884 -0.9989082
vn -0.3305232 0.01007286 -0.9437441
vn -1 0 0
vn -1 0 0
vn -1 0 0
vn -1 0 0
vn -0.330389 -0.01073295 -0.9437839
vn -0.3305232 0.01007286 -0.9437441
vn -0.6608898 0.2238054 -0.7163349
vn -0.6618729 -0.2249514 -0.7150672
vn -0.8028198 0.5459145 -0.2397032
vn -0.8028633 -0.5458694 -0.2396604
vn -0.9817785 0.03588012 -0.1866108
vn -0.8679057 0.01119298 -0.4966027
vn -0.9810932 -0.03738712 -0.1898901
vn -0.8676844 -0.01174837 -0.4969767
g Dy_TraningPro_Fly02b_0
f 3/3/3 2/2/2 1/1/1
f 4/4/4 3/3/3 1/1/1
f 3/3/3 4/4/4 5/5/5
f 6/6/6 3/3/3 5/5/5
f 7/7/7 6/6/6 5/5/5
f 8/8/8 7/7/7 5/5/5
f 9/9/9 7/7/7 8/8/8
f 10/10/10 9/9/9 8/8/8
f 9/9/9 10/10/10 11/11/11
f 12/12/12 9/9/9 11/11/11
f 13/13/13 12/12/12 11/11/11
f 14/14/14 13/13/13 11/11/11
f 15/15/15 13/13/13 14/14/14
f 16/16/16 15/15/15 14/14/14
f 1/1/1 2/2/2 17/17/17
f 2/2/2 18/18/18 17/17/17
f 21/21/21 20/20/20 19/19/19
f 22/22/22 21/21/21 19/19/19
f 23/23/23 22/22/22 19/19/19
f 24/24/24 23/23/23 19/19/19
f 27/27/27 26/26/26 25/25/25
f 28/28/28 27/27/27 25/25/25
f 31/31/31 30/30/30 29/29/29
f 32/32/32 31/31/31 29/29/29
f 35/35/35 34/34/34 33/33/33
f 36/36/36 35/35/35 33/33/33
f 36/36/36 33/33/33 37/37/37
f 33/33/33 38/38/38 37/37/37
f 39/39/39 37/37/37 38/38/38
f 40/40/40 39/39/39 38/38/38
f 41/41/41 39/39/39 40/40/40
f 42/42/42 41/41/41 40/40/40
f 45/45/45 44/44/44 43/43/43
f 46/46/46 45/45/45 43/43/43
f 47/47/47 44/44/44 45/45/45
f 48/48/48 47/47/47 45/45/45
f 43/43/43 44/44/44 49/49/49
f 49/49/49 50/50/50 43/43/43
f 50/50/50 51/51/51 43/43/43
f 44/44/44 52/52/52 49/49/49
f 44/44/44 47/47/47 52/52/52
f 47/47/47 53/53/53 52/52/52
f 47/47/47 54/54/54 53/53/53
f 54/54/54 55/55/55 53/53/53
f 54/54/54 56/56/56 55/55/55
f 56/56/56 57/57/57 55/55/55
f 56/56/56 58/58/58 57/57/57
f 58/58/58 59/59/59 57/57/57
f 58/58/58 60/60/60 59/59/59
f 60/60/60 61/61/61 59/59/59
f 61/61/61 60/60/60 62/62/62
f 63/63/63 61/61/61 62/62/62
f 62/62/62 64/64/64 63/63/63
f 65/65/65 64/64/64 62/62/62
f 66/66/66 65/65/65 62/62/62
f 66/66/66 62/62/62 60/60/60
f 64/64/64 67/67/67 63/63/63
f 64/64/64 65/65/65 67/67/67
f 65/65/65 66/66/66 68/68/68
f 65/65/65 68/68/68 67/67/67
f 66/66/66 69/69/69 68/68/68
f 69/69/69 66/66/66 70/70/70
f 70/70/70 66/66/66 60/60/60
f 71/71/71 69/69/69 70/70/70
f 71/71/71 70/70/70 72/72/72
f 70/70/70 73/73/73 72/72/72
f 72/72/72 73/73/73 74/74/74
f 73/73/73 75/75/75 74/74/74
f 75/75/75 73/73/73 70/70/70
f 75/75/75 76/76/76 74/74/74
f 77/77/77 72/72/72 74/74/74
f 78/78/78 75/75/75 70/70/70
f 78/78/78 70/70/70 60/60/60
f 76/76/76 75/75/75 79/79/79
f 80/80/80 76/76/76 79/79/79
f 79/79/79 81/81/81 80/80/80
f 81/81/81 82/82/82 80/80/80
f 83/83/83 82/82/82 81/81/81
f 84/84/84 83/83/83 81/81/81
f 85/85/85 81/81/81 79/79/79
f 84/84/84 81/81/81 85/85/85
f 86/86/86 85/85/85 79/79/79
f 75/75/75 78/78/78 86/86/86
f 79/79/79 75/75/75 86/86/86
f 58/58/58 78/78/78 60/60/60
f 86/86/86 78/78/78 58/58/58
f 56/56/56 86/86/86 58/58/58
f 87/87/87 83/83/83 84/84/84
f 88/88/88 87/87/87 84/84/84
f 87/87/87 88/88/88 89/89/89
f 88/88/88 90/90/90 89/89/89
f 89/89/89 90/90/90 91/91/91
f 90/90/90 92/92/92 91/91/91
f 93/93/93 91/91/91 92/92/92
f 94/94/94 93/93/93 92/92/92
f 95/95/95 92/92/92 90/90/90
f 46/46/46 95/95/95 90/90/90
f 46/46/46 90/90/90 88/88/88
f 45/45/45 46/46/46 88/88/88
f 96/96/96 94/94/94 92/92/92
f 95/95/95 96/96/96 92/92/92
f 96/96/96 95/95/95 97/97/97
f 98/98/98 96/96/96 97/97/97
f 97/97/97 99/99/99 98/98/98
f 97/97/97 51/51/51 99/99/99
f 51/51/51 97/97/97 95/95/95
f 99/99/99 100/100/100 98/98/98
f 99/99/99 51/51/51 100/100/100
f 51/51/51 50/50/50 100/100/100
f 43/43/43 51/51/51 95/95/95
f 46/46/46 43/43/43 95/95/95
f 45/45/45 88/88/88 48/48/48
f 88/88/88 84/84/84 48/48/48
f 48/48/48 84/84/84 85/85/85
f 47/47/47 48/48/48 85/85/85
f 54/54/54 47/47/47 85/85/85
f 54/54/54 85/85/85 86/86/86
f 56/56/56 54/54/54 86/86/86
f 103/103/103 102/102/102 101/101/101
f 104/104/104 103/103/103 101/101/101
f 104/104/104 101/101/101 105/105/105
f 106/106/106 104/104/104 105/105/105
f 106/106/106 105/105/105 107/107/107
f 108/108/108 106/106/106 107/107/107
f 101/101/101 102/102/102 109/109/109
f 102/102/102 110/110/110 109/109/109
f 110/110/110 102/102/102 111/111/111
f 112/112/112 110/110/110 111/111/111
f 101/101/101 109/109/109 113/113/113
f 105/105/105 101/101/101 113/113/113
f 105/105/105 113/113/113 114/114/114
f 107/107/107 105/105/105 114/114/114
f 107/107/107 114/114/114 115/115/115
f 116/116/116 107/107/107 115/115/115
f 116/116/116 115/115/115 117/117/117
f 118/118/118 116/116/116 117/117/117
f 118/118/118 117/117/117 119/119/119
f 120/120/120 118/118/118 119/119/119
f 119/119/119 121/121/121 120/120/120
f 121/121/121 122/122/122 120/120/120
f 122/122/122 121/121/121 123/123/123
f 124/124/124 122/122/122 123/123/123
f 122/122/122 124/124/124 125/125/125
f 124/124/124 126/126/126 125/125/125
f 125/125/125 126/126/126 127/127/127
f 127/127/127 128/128/128 125/125/125
f 128/128/128 129/129/129 125/125/125
f 122/122/122 125/125/125 129/129/129
f 120/120/120 122/122/122 129/129/129
f 126/126/126 130/130/130 127/127/127
f 124/124/124 123/123/123 130/130/130
f 126/126/126 124/124/124 130/130/130
f 129/129/129 128/128/128 131/131/131
f 132/132/132 129/129/129 131/131/131
f 132/132/132 120/120/120 129/129/129
f 118/118/118 120/120/120 132/132/132
f 133/133/133 132/132/132 131/131/131
f 133/133/133 131/131/131 134/134/134
f 135/135/135 133/133/133 134/134/134
f 134/134/134 131/131/131 136/136/136
f 131/131/131 137/137/137 136/136/136
f 128/128/128 137/137/137 131/131/131
f 133/133/133 135/135/135 138/138/138
f 139/139/139 133/133/133 138/138/138
f 132/132/132 133/133/133 139/139/139
f 140/140/140 139/139/139 138/138/138
f 141/141/141 140/140/140 138/138/138
f 140/140/140 108/108/108 139/139/139
f 108/108/108 142/142/142 139/139/139
f 142/142/142 132/132/132 139/139/139
f 106/106/106 108/108/108 140/140/140
f 143/143/143 106/106/106 140/140/140
f 118/118/118 132/132/132 142/142/142
f 116/116/116 118/118/118 142/142/142
f 106/106/106 143/143/143 144/144/144
f 144/144/144 143/143/143 145/145/145
f 144/144/144 145/145/145 146/146/146
f 147/147/147 144/144/144 146/146/146
f 147/147/147 146/146/146 148/148/148
f 146/146/146 149/149/149 148/148/148
f 148/148/148 149/149/149 150/150/150
f 149/149/149 151/151/151 150/150/150
f 147/147/147 148/148/148 103/103/103
f 148/148/148 152/152/152 103/103/103
f 152/152/152 148/148/148 150/150/150
f 147/147/147 103/103/103 104/104/104
f 144/144/144 147/147/147 104/104/104
f 104/104/104 106/106/106 144/144/144
f 153/153/153 152/152/152 150/150/150
f 153/153/153 154/154/154 152/152/152
f 154/154/154 155/155/155 152/152/152
f 155/155/155 154/154/154 156/156/156
f 157/157/157 155/155/155 156/156/156
f 111/111/111 155/155/155 157/157/157
f 157/157/157 156/156/156 112/112/112
f 111/111/111 157/157/157 112/112/112
f 155/155/155 111/111/111 102/102/102
f 152/152/152 155/155/155 102/102/102
f 103/103/103 152/152/152 102/102/102
f 149/149/149 146/146/146 158/158/158
f 146/146/146 145/145/145 158/158/158
f 145/145/145 159/159/159 158/158/158
f 143/143/143 160/160/160 145/145/145
f 143/143/143 140/140/140 160/160/160
f 140/140/140 141/141/141 160/160/160
f 160/160/160 141/141/141 161/161/161
f 141/141/141 162/162/162 161/161/161
f 141/141/141 138/138/138 162/162/162
f 138/138/138 163/163/163 162/162/162
f 138/138/138 135/135/135 163/163/163
f 135/135/135 164/164/164 163/163/163
f 164/164/164 135/135/135 165/165/165
f 135/135/135 134/134/134 165/165/165
f 165/165/165 134/134/134 136/136/136
f 166/166/166 165/165/165 136/136/136
f 145/145/145 160/160/160 87/87/87
f 160/160/160 83/83/83 87/87/87
f 169/169/169 168/168/168 167/167/167
f 170/170/170 169/169/169 167/167/167
f 173/173/173 172/172/172 171/171/171
f 174/174/174 173/173/173 171/171/171
f 173/173/173 174/174/174 175/175/175
f 174/174/174 176/176/176 175/175/175
f 142/142/142 108/108/108 107/107/107
f 116/116/116 142/142/142 107/107/107
f 177/177/177 149/149/149 158/158/158
f 179/179/179 177/177/177 178/178/178
f 180/180/180 179/179/179 178/178/178
