g SM_training_wall_C
v -0.7774722 0 0.2417041
v -0.7774722 0 -0.2417041
v -0.7892396 -1.77247E-08 -0.2322974
v -0.7892396 -1.77247E-08 0.2322961
v -0.8254502 -1.282418E-07 -0.1967395
v -0.8254502 -1.282418E-07 0.1967395
v 0.7774716 -7.572258E-08 0.2417041
v 0.7774716 -7.572258E-08 -0.2417041
v 0.7892392 -7.600826E-08 0.2322961
v 0.7892392 -7.600826E-08 -0.2322974
v 0.8254495 -7.600826E-08 0.1967395
v 0.8254495 -7.600826E-08 -0.1967395
v -0.7770451 0.008222849 0.25
v 0.7770666 0.008193894 0.25
v 0.7774716 -7.572258E-08 0.2417041
v -0.7774722 0 0.2417041
v -0.7877595 0.008168837 0.2455786
v -0.7892396 -1.77247E-08 0.2322961
v -0.8287423 0.008483387 0.2045959
v -0.8254502 -1.282418E-07 0.1967395
v -0.8333336 0.008483376 0.193512
v -0.8333336 0.008483376 -0.193512
v -0.8254502 -1.282418E-07 -0.1967395
v -0.8287423 0.008483387 -0.2045959
v -0.787782 0.008210277 -0.2455566
v -0.7892396 -1.77247E-08 -0.2322974
v -0.7770672 0.00819397 -0.25
v -0.7774722 0 -0.2417041
v 0.7770444 0.008222772 -0.25
v 0.7774716 -7.572258E-08 -0.2417041
v 0.7877591 0.008168765 -0.2455786
v 0.7892392 -7.600826E-08 -0.2322974
v 0.8288043 0.008367544 -0.2045337
v 0.8254495 -7.600826E-08 -0.1967395
v 0.8333328 0.008367544 -0.1936011
v 0.8333328 0.008367544 0.1935998
v 0.8254495 -7.600826E-08 0.1967395
v -0.7877595 0.008168837 0.2455786
v -0.7876678 1.943883 0.2456702
v -0.777023 1.94369 0.25
v -0.7770451 0.008222849 0.25
v -0.8287423 0.008483387 0.2045959
v -0.8288678 1.94369 0.2044702
v -0.8333336 0.008483376 0.193512
v -0.8333336 1.94369 0.193689
v 0.7770666 0.008193894 0.25
v 0.7770224 1.94369 0.25
v 0.7878039 1.94369 0.2455334
v 0.7877814 0.008210207 0.2455566
v 0.8290036 1.943883 0.2043335
v 0.8287414 0.008483439 0.2045959
v 0.8333328 1.94369 0.193689
v 0.8333328 0.008367544 0.1935998
v 0.7877814 0.008210207 0.2455566
v 0.8287414 0.008483439 0.2045959
v 0.8254495 -7.600826E-08 0.1967395
v 0.7892392 -7.600826E-08 0.2322961
v 0.7774716 -7.572258E-08 0.2417041
v 0.8333328 0.008367544 0.1935998
v -0.7770672 0.00819397 -0.25
v -0.777023 1.94369 -0.25
v -0.7878044 1.94369 -0.2455347
v -0.787782 0.008210277 -0.2455566
v -0.8288678 1.94369 -0.2044714
v -0.8287423 0.008483387 -0.2045959
v -0.8333336 1.94369 -0.193689
v -0.8333336 0.008483376 -0.193512
v -0.8333336 0.008483376 0.193512
v -0.8333336 1.94369 0.193689
v 0.7770224 1.94369 -0.25
v 0.7770444 0.008222772 -0.25
v 0.7877591 0.008168765 -0.2455786
v 0.7878039 1.94369 -0.2455347
v 0.8288043 0.008367544 -0.2045337
v 0.8288672 1.94369 -0.2044714
v 0.8333328 0.008367544 -0.1936011
v 0.8333331 1.94369 -0.193689
v 0.8333328 1.94369 0.193689
v 0.8333328 0.008367544 0.1935998
v -0.8233355 1.955004 0.2050037
v -0.7883375 1.955004 0.2400012
v -0.7876678 1.943883 0.2456702
v -0.8288678 1.94369 0.2044702
v -0.7883375 1.990002 0.2050037
v -0.8290043 1.954334 0.1938818
v -0.7878044 1.995534 0.193689
v -0.777023 1.995534 0.2044702
v -0.777023 1.954471 0.2455334
v -0.7876678 1.995671 -0.193883
v -0.777023 2 -0.193689
v -0.777023 2 0.193689
v 0.7770224 1.995534 0.2044702
v 0.7770224 2 0.193689
v -0.8288678 1.954471 -0.193689
v -0.8333336 1.94369 0.193689
v -0.8333336 1.94369 -0.193689
v -0.8233355 1.955004 -0.2050037
v -0.7883375 1.990002 -0.2050037
v 0.7772155 1.954335 0.2456702
v 0.7770224 1.94369 0.25
v -0.777023 1.94369 0.25
v 0.7883371 1.990002 0.2050037
v 0.7883371 1.955004 0.2400012
v 0.8233349 1.955004 0.2050037
v 0.8290036 1.943883 0.2043335
v 0.7878039 1.94369 0.2455334
v 0.7878039 1.995534 0.193689
v 0.8288668 1.954471 0.193689
v -0.7883375 1.955004 -0.2400024
v -0.7772162 1.954335 -0.2456714
v -0.777023 1.995534 -0.2044714
v -0.8288678 1.94369 -0.2044714
v -0.7878044 1.94369 -0.2455347
v 0.7772155 1.995671 -0.2043347
v 0.7770224 2 -0.193689
v 0.7770224 1.954471 -0.2455347
v 0.7883371 1.955004 -0.2400024
v 0.7883371 1.990002 -0.2050037
v -0.777023 1.94369 -0.25
v 0.7770224 1.94369 -0.25
v 0.8233352 1.955004 -0.2050037
v 0.7878039 1.94369 -0.2455347
v 0.8288672 1.94369 -0.2044714
v 0.8288672 1.954471 -0.193689
v 0.7878039 1.995534 -0.193689
v 0.7770224 2 0.193689
v 0.7878039 1.995534 0.193689
v 0.8288668 1.954471 0.193689
v 0.8333331 1.94369 -0.193689
v 0.8333328 1.94369 0.193689
v -0.777023 2 -0.193689
v 0.7770224 2 -0.193689
v 0.7770224 2 0.193689
v -0.777023 2 0.193689
v 0.8333328 1.94369 0.193689
vt 0.7197539 0.5010578
vt 0.6562518 0.501037
vt 0.6574836 0.5025803
vt 0.7185261 0.5026009
vt 0.6621594 0.5073419
vt 0.7138457 0.5073595
vt 0.7197359 0.2967571
vt 0.6562622 0.2967679
vt 0.7185059 0.2952165
vt 0.6574947 0.295226
vt 0.7138378 0.2904611
vt 0.6621704 0.2904744
vt 0.7214161 0.5008129
vt 0.7212667 0.2968065
vt 0.7197359 0.2967571
vt 0.7197539 0.5010578
vt 0.7207041 0.5026525
vt 0.7185261 0.5026009
vt 0.7151742 0.5082272
vt 0.7138457 0.5073595
vt 0.7134321 0.5088826
vt 0.6625718 0.5088664
vt 0.6621594 0.5073419
vt 0.660826 0.5081925
vt 0.6553588 0.5026416
vt 0.6574836 0.5025803
vt 0.6547199 0.5009863
vt 0.6562518 0.501037
vt 0.6547276 0.2968215
vt 0.6562622 0.2967679
vt 0.6553688 0.2951721
vt 0.6574947 0.295226
vt 0.6608597 0.2896188
vt 0.6621704 0.2904744
vt 0.6625719 0.2889626
vt 0.7134371 0.2889506
vt 0.7138378 0.2904611
vt 0.0142102 0.2140121
vt 0.0142102 0.4683825
vt 0.01572713 0.4683825
vt 0.01572713 0.2140121
vt 0.006572518 0.2140121
vt 0.006572518 0.4683825
vt 0.005017135 0.2140121
vt 0.005017194 0.4683825
vt 0.2199732 0.2140121
vt 0.2199732 0.4683825
vt 0.2215021 0.4683825
vt 0.2215022 0.2140121
vt 0.2291369 0.4683825
vt 0.229137 0.2140121
vt 0.230675 0.4683825
vt 0.230675 0.2140121
vt 0.720631 0.2951554
vt 0.7151647 0.2896059
vt 0.7138378 0.2904611
vt 0.7185059 0.2952165
vt 0.7197359 0.2967571
vt 0.7134371 0.2889506
vt 0.4965147 0.214012
vt 0.4965147 0.4683825
vt 0.4980438 0.4683825
vt 0.4980438 0.214012
vt 0.5056663 0.4683825
vt 0.5056663 0.214012
vt 0.5072215 0.4683825
vt 0.5072215 0.214012
vt 0.5581104 0.214012
vt 0.5581104 0.4683825
vt 0.2922753 0.4683825
vt 0.2922753 0.2140121
vt 0.2907469 0.2140121
vt 0.2907469 0.4683825
vt 0.2831168 0.2140121
vt 0.2831168 0.4683825
vt 0.2815724 0.2140121
vt 0.2815724 0.4683825
vt 0.230675 0.4683825
vt 0.230675 0.2140121
vt 0.5767922 0.5189499
vt 0.5710638 0.5126444
vt 0.5691379 0.5128589
vt 0.5759953 0.5209491
vt 0.577635 0.5123723
vt 0.5786699 0.5199136
vt 0.5791938 0.5123027
vt 0.5777713 0.5108759
vt 0.570181 0.5110129
vt 0.6301441 0.5122805
vt 0.6300451 0.5108448
vt 0.5792803 0.5108534
vt 0.5777684 0.3069156
vt 0.5792805 0.3069354
vt 0.6305507 0.519922
vt 0.5786588 0.5214788
vt 0.6305828 0.5215101
vt 0.6324325 0.5190266
vt 0.6316849 0.5124004
vt 0.5701355 0.3067755
vt 0.5686184 0.306794
vt 0.5686417 0.511038
vt 0.5776411 0.3053815
vt 0.5709894 0.3048893
vt 0.5768903 0.2987558
vt 0.5762285 0.2967381
vt 0.568953 0.3042617
vt 0.5792052 0.3054762
vt 0.5787729 0.2978616
vt 0.6383342 0.5128904
vt 0.6391885 0.5110052
vt 0.631557 0.5108646
vt 0.6331364 0.5210462
vt 0.6403687 0.5135193
vt 0.6315426 0.3068928
vt 0.6300541 0.3069376
vt 0.6391745 0.3068023
vt 0.6383444 0.3048837
vt 0.6316969 0.3053836
vt 0.6407053 0.510987
vt 0.6407148 0.3067949
vt 0.6324481 0.2987577
vt 0.6403795 0.3042541
vt 0.6331544 0.2967415
vt 0.6305637 0.2978616
vt 0.6301304 0.3054783
vt 0.5792805 0.3069354
vt 0.5792052 0.3054762
vt 0.5787729 0.2978616
vt 0.6305957 0.2962747
vt 0.5787417 0.2962754
vt 0.6300451 0.5108448
vt 0.6300541 0.3069376
vt 0.5792805 0.3069354
vt 0.5792803 0.5108534
vt 0.5787417 0.2962754
vn -9.660264E-05 -0.9998657 0.01639199
vn -9.712871E-05 -0.9998653 -0.01641116
vn -0.03027655 -0.9990407 -0.03163765
vn -0.03024152 -0.9990432 0.03159246
vn -0.1153048 -0.993273 -0.01065315
vn -0.11529 -0.993275 0.01063045
vn 9.704838E-05 -0.9998653 0.01641116
vn 9.650227E-05 -0.9998657 -0.01639184
vn 0.03027781 -0.9990407 0.03163658
vn 0.03001733 -0.9990553 -0.03142278
vn 0.1142658 -0.9933931 0.01065371
vn 0.1141954 -0.9934018 -0.01059063
vn -0.002807472 -0.004368532 0.9999865
vn 0.002847193 -0.004363719 0.9999864
vn 9.704838E-05 -0.9998653 0.01641116
vn -9.660264E-05 -0.9998657 0.01639199
vn -0.6598114 -0.002882211 0.7514257
vn -0.03024152 -0.9990432 0.03159246
vn -0.7516083 -0.004026646 0.6595975
vn -0.11529 -0.993275 0.01063045
vn -0.9999248 -0.004691896 0.01133153
vn -0.9999248 -0.004691891 -0.01133151
vn -0.1153048 -0.993273 -0.01065315
vn -0.7516994 -0.004034948 -0.6594935
vn -0.6597446 -0.002879258 -0.7514843
vn -0.03027655 -0.9990407 -0.03163765
vn -0.002846832 -0.004363719 -0.9999864
vn -9.712871E-05 -0.9998653 -0.01641116
vn 0.002850452 -0.004368235 -0.9999864
vn 9.650227E-05 -0.9998657 -0.01639184
vn 0.6598823 -0.002873034 -0.7513635
vn 0.03001733 -0.9990553 -0.03142278
vn 0.7514416 -0.004030091 -0.6597874
vn 0.1141954 -0.9934018 -0.01059063
vn 0.9999257 -0.004679028 -0.01125376
vn 0.9999275 -0.004681614 0.0110971
vn 0.1142658 -0.9933931 0.01065371
vn -0.6598114 -0.002882211 0.7514257
vn -0.6601343 0.001560371 0.751146
vn -0.002826118 0.002260217 0.9999934
vn -0.002807472 -0.004368532 0.9999865
vn -0.7516083 -0.004026646 0.6595975
vn -0.751855 0.00153063 0.6593268
vn -0.9999248 -0.004691896 0.01133153
vn -0.9999328 0.002282177 0.01137363
vn 0.002847193 -0.004363719 0.9999864
vn 0.00284677 0.002283748 0.9999933
vn 0.6600356 0.001542342 0.7512327
vn 0.6598219 -0.002874796 0.7514166
vn 0.7514365 0.001551356 0.6598036
vn 0.7516388 -0.004032263 0.6595626
vn 0.9999334 0.002293375 0.01131863
vn 0.9999275 -0.004681614 0.0110971
vn 0.6598219 -0.002874796 0.7514166
vn 0.7516388 -0.004032263 0.6595626
vn 0.1142658 -0.9933931 0.01065371
vn 0.03027781 -0.9990407 0.03163658
vn 9.704838E-05 -0.9998653 0.01641116
vn 0.9999275 -0.004681614 0.0110971
vn -0.002846832 -0.004363719 -0.9999864
vn -0.002846407 0.00228311 -0.9999933
vn -0.6598758 0.001547841 -0.7513731
vn -0.6597446 -0.002879258 -0.7514843
vn -0.7520123 0.00155127 -0.6591474
vn -0.7516994 -0.004034948 -0.6594935
vn -0.9999328 0.002261409 -0.01137583
vn -0.9999248 -0.004691891 -0.01133151
vn -0.9999248 -0.004691896 0.01133153
vn -0.9999328 0.002282177 0.01137363
vn 0.002840031 0.002259916 -0.9999934
vn 0.002850452 -0.004368235 -0.9999864
vn 0.6598823 -0.002873034 -0.7513635
vn 0.6598202 0.001561359 -0.751422
vn 0.7514416 -0.004030091 -0.6597874
vn 0.7517219 0.001554512 -0.6594784
vn 0.9999257 -0.004679028 -0.01125376
vn 0.9999336 0.002295139 -0.01129541
vn 0.9999334 0.002293375 0.01131863
vn 0.9999275 -0.004681614 0.0110971
vn -0.6726503 0.5236727 0.5227891
vn -0.5225915 0.5235474 0.6729015
vn -0.6601343 0.001560371 0.751146
vn -0.751855 0.00153063 0.6593268
vn -0.5218706 0.6733331 0.5237115
vn -0.7514006 0.6598021 0.007626554
vn -0.6596054 0.7515733 0.007632094
vn -0.001936545 0.7514191 0.6598223
vn -0.00192493 0.6597803 0.7514561
vn -0.6597994 0.751403 -0.007626728
vn -0.002840322 0.9999349 -0.01104755
vn -0.002813185 0.9999331 0.01121772
vn 0.001932114 0.7513472 0.6599043
vn 0.002854822 0.999933 0.01121657
vn -0.7515685 0.6596109 -0.007632173
vn -0.9999328 0.002282177 0.01137363
vn -0.9999328 0.002261409 -0.01137583
vn -0.6733279 0.5218829 -0.5237058
vn -0.5236818 0.6726487 -0.5227821
vn 0.001936534 0.6601003 0.7511749
vn 0.00284677 0.002283748 0.9999933
vn -0.002826118 0.002260217 0.9999934
vn 0.5237097 0.6733336 0.5218715
vn 0.5227855 0.5236707 0.6726547
vn 0.6729023 0.5235438 0.5225938
vn 0.7514365 0.001551356 0.6598036
vn 0.6600356 0.001542342 0.7512327
vn 0.6594344 0.7517232 0.007647874
vn 0.751685 0.6594788 0.00757651
vn -0.5235564 0.5226044 -0.6728844
vn -0.001933786 0.6601616 -0.7511212
vn -0.001917837 0.751339 -0.6599136
vn -0.7520123 0.00155127 -0.6591474
vn -0.6598758 0.001547841 -0.7513731
vn 0.001934004 0.7511303 -0.6601511
vn 0.002853195 0.9999337 -0.01116014
vn 0.001936121 0.6599138 -0.7513388
vn 0.5237156 0.5218824 -0.6733206
vn 0.5235534 0.6729046 -0.5225813
vn -0.002846407 0.00228311 -0.9999933
vn 0.002840031 0.002259916 -0.9999934
vn 0.6735781 0.5226472 -0.5226207
vn 0.6598202 0.001561359 -0.751422
vn 0.7517219 0.001554512 -0.6594784
vn 0.75172 0.659438 -0.00764783
vn 0.6594752 0.7516881 -0.0075763
vn 0.002854822 0.999933 0.01121657
vn 0.6594344 0.7517232 0.007647874
vn 0.751685 0.6594788 0.00757651
vn 0.9999336 0.002295139 -0.01129541
vn 0.9999334 0.002293375 0.01131863
vn -0.002840322 0.9999349 -0.01104755
vn 0.002853195 0.9999337 -0.01116014
vn 0.002854822 0.999933 0.01121657
vn -0.002813185 0.9999331 0.01121772
vn 0.9999334 0.002293375 0.01131863
g SM_training_wall_C_0
f 3/3/3 2/2/2 1/1/1
f 4/4/4 3/3/3 1/1/1
f 5/5/5 3/3/3 4/4/4
f 6/6/6 5/5/5 4/4/4
f 1/1/1 2/2/2 7/7/7
f 2/2/2 8/8/8 7/7/7
f 7/7/7 8/8/8 9/9/9
f 8/8/8 10/10/10 9/9/9
f 9/9/9 10/10/10 11/11/11
f 10/10/10 12/12/12 11/11/11
f 15/15/15 14/14/14 13/13/13
f 16/16/16 15/15/15 13/13/13
f 13/13/13 17/17/17 16/16/16
f 17/17/17 18/18/18 16/16/16
f 17/17/17 19/19/19 18/18/18
f 19/19/19 20/20/20 18/18/18
f 20/20/20 19/19/19 21/21/21
f 21/21/21 22/22/22 20/20/20
f 22/22/22 23/23/23 20/20/20
f 23/23/23 22/22/22 24/24/24
f 23/23/23 24/24/24 25/25/25
f 26/26/26 23/23/23 25/25/25
f 25/25/25 27/27/27 26/26/26
f 27/27/27 28/28/28 26/26/26
f 27/27/27 29/29/29 28/28/28
f 29/29/29 30/30/30 28/28/28
f 29/29/29 31/31/31 30/30/30
f 31/31/31 32/32/32 30/30/30
f 31/31/31 33/33/33 32/32/32
f 33/33/33 34/34/34 32/32/32
f 33/33/33 35/35/35 34/34/34
f 35/35/35 36/36/36 34/34/34
f 36/36/36 37/37/37 34/34/34
f 40/40/40 39/39/39 38/38/38
f 41/41/41 40/40/40 38/38/38
f 42/42/42 38/38/38 39/39/39
f 43/43/43 42/42/42 39/39/39
f 42/42/42 43/43/43 44/44/44
f 43/43/43 45/45/45 44/44/44
f 41/41/41 46/46/46 40/40/40
f 46/46/46 47/47/47 40/40/40
f 48/48/48 47/47/47 46/46/46
f 49/49/49 48/48/48 46/46/46
f 48/48/48 49/49/49 50/50/50
f 49/49/49 51/51/51 50/50/50
f 52/52/52 50/50/50 51/51/51
f 53/53/53 52/52/52 51/51/51
f 56/56/56 55/55/55 54/54/54
f 57/57/57 56/56/56 54/54/54
f 54/54/54 14/14/14 57/57/57
f 14/14/14 58/58/58 57/57/57
f 55/55/55 56/56/56 59/59/59
f 62/62/62 61/61/61 60/60/60
f 63/63/63 62/62/62 60/60/60
f 62/62/62 63/63/63 64/64/64
f 63/63/63 65/65/65 64/64/64
f 66/66/66 64/64/64 65/65/65
f 67/67/67 66/66/66 65/65/65
f 66/66/66 67/67/67 68/68/68
f 69/69/69 66/66/66 68/68/68
f 61/61/61 70/70/70 60/60/60
f 70/70/70 71/71/71 60/60/60
f 71/71/71 70/70/70 72/72/72
f 70/70/70 73/73/73 72/72/72
f 74/74/74 72/72/72 73/73/73
f 75/75/75 74/74/74 73/73/73
f 74/74/74 75/75/75 76/76/76
f 75/75/75 77/77/77 76/76/76
f 76/76/76 77/77/77 78/78/78
f 79/79/79 76/76/76 78/78/78
f 82/82/82 81/81/81 80/80/80
f 83/83/83 82/82/82 80/80/80
f 81/81/81 84/84/84 80/80/80
f 80/80/80 84/84/84 85/85/85
f 80/80/80 85/85/85 83/83/83
f 84/84/84 86/86/86 85/85/85
f 84/84/84 81/81/81 87/87/87
f 81/81/81 88/88/88 87/87/87
f 81/81/81 82/82/82 88/88/88
f 86/86/86 89/89/89 85/85/85
f 90/90/90 89/89/89 86/86/86
f 91/91/91 90/90/90 86/86/86
f 84/84/84 87/87/87 91/91/91
f 86/86/86 84/84/84 91/91/91
f 87/87/87 92/92/92 91/91/91
f 92/92/92 93/93/93 91/91/91
f 89/89/89 94/94/94 85/85/85
f 85/85/85 94/94/94 95/95/95
f 85/85/85 95/95/95 83/83/83
f 94/94/94 96/96/96 95/95/95
f 97/97/97 94/94/94 89/89/89
f 94/94/94 97/97/97 96/96/96
f 98/98/98 97/97/97 89/89/89
f 99/99/99 92/92/92 87/87/87
f 88/88/88 99/99/99 87/87/87
f 100/100/100 99/99/99 88/88/88
f 101/101/101 100/100/100 88/88/88
f 102/102/102 92/92/92 99/99/99
f 92/92/92 102/102/102 93/93/93
f 103/103/103 102/102/102 99/99/99
f 102/102/102 103/103/103 104/104/104
f 105/105/105 104/104/104 103/103/103
f 106/106/106 105/105/105 103/103/103
f 99/99/99 100/100/100 106/106/106
f 103/103/103 99/99/99 106/106/106
f 102/102/102 104/104/104 107/107/107
f 102/102/102 107/107/107 93/93/93
f 104/104/104 108/108/108 107/107/107
f 104/104/104 105/105/105 108/108/108
f 97/97/97 98/98/98 109/109/109
f 110/110/110 109/109/109 98/98/98
f 111/111/111 110/110/110 98/98/98
f 97/97/97 109/109/109 112/112/112
f 109/109/109 113/113/113 112/112/112
f 109/109/109 110/110/110 113/113/113
f 111/111/111 114/114/114 110/110/110
f 115/115/115 114/114/114 111/111/111
f 90/90/90 115/115/115 111/111/111
f 114/114/114 116/116/116 110/110/110
f 117/117/117 116/116/116 114/114/114
f 118/118/118 117/117/117 114/114/114
f 110/110/110 116/116/116 119/119/119
f 110/110/110 119/119/119 113/113/113
f 116/116/116 120/120/120 119/119/119
f 116/116/116 117/117/117 120/120/120
f 117/117/117 118/118/118 121/121/121
f 122/122/122 117/117/117 121/121/121
f 117/117/117 122/122/122 120/120/120
f 123/123/123 122/122/122 121/121/121
f 121/121/121 118/118/118 124/124/124
f 118/118/118 125/125/125 124/124/124
f 125/125/125 118/118/118 114/114/114
f 115/115/115 125/125/125 114/114/114
f 125/125/125 115/115/115 126/126/126
f 127/127/127 125/125/125 126/126/126
f 124/124/124 125/125/125 127/127/127
f 128/128/128 124/124/124 127/127/127
f 129/129/129 124/124/124 128/128/128
f 121/121/121 124/124/124 129/129/129
f 123/123/123 121/121/121 129/129/129
f 130/130/130 129/129/129 128/128/128
f 89/89/89 90/90/90 111/111/111
f 98/98/98 89/89/89 111/111/111
f 133/133/133 132/132/132 131/131/131
f 134/134/134 133/133/133 131/131/131
f 97/97/97 112/112/112 96/96/96
f 82/82/82 101/101/101 88/88/88
f 105/105/105 135/135/135 108/108/108
