g SM_training_roadgate_A
v -0.1920865 0 -0.2345496
v -0.1920865 0 0.2345496
v -0.1786694 -2.326965E-05 0.2361694
v -0.1786694 -2.326965E-05 -0.2361706
v 0.2409317 -0.001477814 -0.03216553
v 0.2409329 -0.001477814 0.03216431
v -0.2409903 0 -0.2042712
v -0.2409903 0 0.2042712
v -0.1917319 0.009284096 -0.24599
v -0.2434634 0.009570885 -0.213363
v -0.2409903 0 -0.2042712
v -0.1920865 0 -0.2345496
v -0.1786725 0.009199485 -0.246731
v -0.1786694 -2.326965E-05 -0.2361706
v 0.2428455 0.008064995 -0.04131958
v 0.2409317 -0.001477814 -0.03216553
v -0.2500003 0.009461784 -0.2015991
v -0.2409903 0 0.2042712
v -0.2500003 0.009570579 0.2015124
v 0.2499985 0.008050269 -0.02987549
v 0.2499991 0.008050269 0.02987427
v 0.2409329 -0.001477814 0.03216431
v 0.2428461 0.008064995 0.04131714
v -0.1786233 0.009267006 0.2467078
v -0.1786694 -2.326965E-05 0.2361694
v -0.191683 0.009212685 0.2460205
v -0.1920865 0 0.2345496
v -0.2434634 0.009570885 0.213363
v -0.2409903 0 0.2042712
v -0.2500003 0.009570579 0.2015124
v -0.1787497 3.998491 -0.2462854
v -0.1788269 5.941209 -0.2458411
v -0.1917758 5.940906 -0.2449829
v -0.1917538 3.998491 -0.245487
v -0.2434021 5.941103 -0.2124219
v -0.2434329 3.998491 -0.2128918
v -0.2495163 5.940958 -0.2012085
v -0.2497583 3.998491 -0.2014038
v -0.2495163 5.940958 0.2012097
v -0.2497583 3.998491 0.2013611
v 0.2431155 3.998491 -0.04118042
v 0.2433856 5.941167 -0.04104126
v 0.2428455 0.008064995 -0.04131958
v -0.1786725 0.009199485 -0.246731
v -0.1917319 0.009284096 -0.24599
v -0.2434634 0.009570885 -0.213363
v -0.2500003 0.009461784 -0.2015991
v -0.2500003 0.009570579 0.2015124
v -0.2437216 5.952848 -0.1986731
v -0.2440317 5.952605 0.1992029
v -0.2495163 5.940958 0.2012097
v -0.2495163 5.940958 -0.2012085
v -0.1908627 5.9942 -0.1789185
v -0.2367691 5.953034 -0.2105225
v -0.1919037 5.988107 -0.1934399
v -0.1908881 5.99418 0.178894
v -0.1783246 5.99849 -0.1726831
v -0.1783246 5.99849 0.1726819
v -0.1921185 5.953333 -0.2384509
v -0.2434021 5.941103 -0.2124219
v -0.1917758 5.940906 -0.2449829
v -0.1783963 5.953223 -0.2394849
v -0.1786316 5.993887 -0.1866992
v 0.1671628 5.99849 -1.220703E-06
v 0.181514 5.994191 -0.006790771
v 0.2363492 5.953067 -0.03804077
v -0.1788269 5.941209 -0.2458411
v 0.2433856 5.941167 -0.04104126
v 0.2443915 5.952687 -0.02700806
v 0.1964032 5.988376 -1.220703E-06
v 0.2443918 5.952687 0.02700683
v 0.2499985 5.941115 -0.03043213
v 0.2499991 5.940713 0.03002807
v 0.2370218 5.952844 0.03802856
v 0.1815106 5.994181 0.00680542
v -0.1783246 5.99849 0.1726819
v -0.1786316 5.993888 0.1866992
v -0.1783963 5.953223 0.2394861
v 0.2433862 5.941167 0.04104004
v -0.1788269 5.941208 0.2458435
v -0.191893 5.953171 0.2388061
v -0.1918716 5.988158 0.1933935
v -0.2367694 5.953034 0.2105225
v -0.1914908 5.941243 0.2451648
v -0.2431283 5.94078 0.2125952
v -0.2440317 5.952605 0.1992029
v -0.1908881 5.99418 0.178894
v -0.2495163 5.940958 0.2012097
v 0.2499985 3.998491 -0.03015381
v 0.2499985 5.941115 -0.03043213
v 0.2433856 5.941167 -0.04104126
v 0.2431155 3.998491 -0.04118042
v 0.2499985 0.008050269 -0.02987549
v 0.2428455 0.008064995 -0.04131958
v -0.2497583 3.998491 0.2013611
v -0.2495163 5.940958 0.2012097
v -0.2431283 5.94078 0.2125952
v -0.2432959 3.998491 0.2129797
v -0.1914908 5.941243 0.2451648
v -0.1915869 3.998491 0.245592
v -0.1788269 5.941208 0.2458435
v -0.1787253 3.998491 0.2462756
v 0.2433862 5.941167 0.04104004
v 0.2431161 3.998491 0.04117798
v -0.191683 0.009212685 0.2460205
v -0.1786233 0.009267006 0.2467078
v 0.2428461 0.008064995 0.04131714
v -0.2500003 0.009570579 0.2015124
v -0.2434634 0.009570885 0.213363
v 0.2431161 3.998491 0.04117798
v 0.2433862 5.941167 0.04104004
v 0.2499991 5.940713 0.03002807
v 0.2499991 3.998491 0.02995117
v 0.2428461 0.008064995 0.04131714
v 0.2499991 0.008050269 0.02987427
v 0.2499991 3.998491 0.02995117
v 0.2499985 5.941115 -0.03043213
v 0.2499985 3.998491 -0.03015381
v 0.2499991 0.008050269 0.02987427
v 0.2499985 0.008050269 -0.02987549
v 0.1671628 5.99849 -1.220703E-06
v -0.1783246 5.99849 0.1726819
v -0.1783246 5.99849 -0.1726831
v 0.2499985 5.941115 -0.03043213
vt 0.908033 0.9336727
vt 0.8463914 0.9336845
vt 0.8461818 0.9354388
vt 0.9082435 0.9354269
vt 0.8814449 0.9905566
vt 0.8730002 0.9905583
vt 0.9040559 0.9272486
vt 0.8503664 0.9272592
vt 0.910023 0.9335691
vt 0.9056655 0.9265166
vt 0.9040559 0.9272486
vt 0.908033 0.9336727
vt 0.9100786 0.9356225
vt 0.9082435 0.9354269
vt 0.8831252 0.9910562
vt 0.8814449 0.9905566
vt 0.9037238 0.9255298
vt 0.8503664 0.9272592
vt 0.8507089 0.9255298
vt 0.8812651 0.9923004
vt 0.8731809 0.9923024
vt 0.8730002 0.9905583
vt 0.8713203 0.9910583
vt 0.8443443 0.9356441
vt 0.8461818 0.9354388
vt 0.8444019 0.9335902
vt 0.8463914 0.9336845
vt 0.8487583 0.9265277
vt 0.8503664 0.9272592
vt 0.8507089 0.9255298
vt 0.8577269 0.5293689
vt 0.8577359 0.7848175
vt 0.8594483 0.7848175
vt 0.859439 0.5293688
vt 0.8674562 0.7848175
vt 0.8674682 0.5293682
vt 0.8691801 0.7848175
vt 0.8691916 0.5293682
vt 0.9221151 0.7848175
vt 0.9221203 0.5293674
vt 0.7960835 0.5293773
vt 0.7960845 0.7848175
vt 0.7960845 0.005124867
vt 0.8577358 0.005124867
vt 0.8594481 0.005124867
vt 0.8674561 0.005124867
vt 0.86918 0.005124867
vt 0.922115 0.005124867
vt 0.8519402 0.8447758
vt 0.905524 0.844728
vt 0.9058691 0.8429784
vt 0.8515217 0.8429783
vt 0.8551255 0.8534647
vt 0.8500943 0.8459285
vt 0.8532107 0.8533266
vt 0.9022616 0.8534622
vt 0.8560271 0.8550996
vt 0.9013631 0.8551006
vt 0.8456227 0.8534005
vt 0.8488897 0.8439972
vt 0.8433452 0.8530906
vt 0.8454785 0.8555733
vt 0.8541581 0.8550279
vt 0.8786964 0.8999288
vt 0.8778514 0.9018371
vt 0.8725534 0.9100926
vt 0.8436955 0.8559394
vt 0.871301 0.9115098
vt 0.8742999 0.9112825
vt 0.8786969 0.9037716
vt 0.883103 0.9112771
vt 0.8734708 0.9132767
vt 0.8838755 0.9133344
vt 0.884845 0.910182
vt 0.8795441 0.9018359
vt 0.9013631 0.8551006
vt 0.9032324 0.8550282
vt 0.9119142 0.8555732
vt 0.8860951 0.9115069
vt 0.9136967 0.8559403
vt 0.9118254 0.853435
vt 0.9041727 0.8533308
vt 0.90729 0.8459204
vt 0.914023 0.8531483
vt 0.9085674 0.8440027
vt 0.905524 0.844728
vt 0.9022616 0.8534622
vt 0.9058691 0.8429784
vt 0.7943752 0.5293774
vt 0.794376 0.7848175
vt 0.7960845 0.7848175
vt 0.7960835 0.5293773
vt 0.7943761 0.005124867
vt 0.7960845 0.005124867
vt 0.9221203 0.5293674
vt 0.9221151 0.7848175
vt 0.9238625 0.7848175
vt 0.9238673 0.5293674
vt 0.9318974 0.7848175
vt 0.9319012 0.5293677
vt 0.9335903 0.7848175
vt 0.9335938 0.529368
vt 0.9952404 0.7848175
vt 0.9952343 0.5293791
vt 0.9318973 0.005124867
vt 0.9335902 0.005124867
vt 0.9952403 0.005124867
vt 0.922115 0.005124867
vt 0.9238623 0.005124867
vt 0.7847461 0.5293773
vt 0.7847455 0.7848175
vt 0.7864764 0.7848175
vt 0.7864766 0.5293773
vt 0.7847455 0.005124867
vt 0.7864764 0.005124867
vt 0.7864766 0.5293773
vt 0.794376 0.7848175
vt 0.7943752 0.5293774
vt 0.7864764 0.005124867
vt 0.7943761 0.005124867
vt 0.8786964 0.8999288
vt 0.9013631 0.8551006
vt 0.8560271 0.8550996
vt 0.8734708 0.9132767
vn -0.000570063 -0.9999999 0
vn -0.0005700428 -0.9999999 0
vn -0.003348978 -0.9999944 0
vn -0.003348984 -0.9999944 0
vn -0.003466466 -0.999994 0
vn -0.003466466 -0.999994 0
vn 0 -1 0
vn 0 -1 0
vn -0.2995399 -0.7244953 -0.6207917
vn -0.3999273 -0.6964477 -0.5958345
vn -0.7015055 -0.7077982 -0.08313807
vn -0.3343466 -0.7148345 -0.6141857
vn 0.2963168 -0.7075844 -0.6414989
vn 0.3001133 -0.7064312 -0.6410047
vn 0.3124166 -0.7031047 -0.6387799
vn 0.3721604 -0.7231087 -0.5819023
vn -0.7266238 -0.6870272 -0.003380141
vn -0.7014008 -0.7078832 0.08329735
vn -0.7266601 -0.6869881 0.003514917
vn 0.7270819 -0.686138 -0.02379867
vn 0.7270834 -0.6861373 0.02377825
vn 0.3725412 -0.7219787 0.5830607
vn 0.3129129 -0.701848 0.6399178
vn 0.2971164 -0.7062933 0.6425509
vn 0.3007149 -0.705182 0.6420973
vn -0.2974624 -0.7258888 0.6201625
vn -0.3335302 -0.7160543 0.6132078
vn -0.4003224 -0.6975003 0.594336
vn -0.7014008 -0.7078832 0.08329735
vn -0.7266601 -0.6869881 0.003514917
vn 0.4253699 7.687167E-05 -0.9050195
vn 0.4249487 0.002593376 -0.9052137
vn -0.4582645 0.00256079 -0.8888122
vn -0.4585826 0.0001455943 -0.8886518
vn -0.6044376 0.002514706 -0.7966484
vn -0.60524 0.0001340199 -0.796043
vn -0.9998817 0.002682342 -0.01514175
vn -0.9998821 8.22948E-05 -0.015352
vn -0.9998778 0.002737928 0.01539294
vn -0.999878 8.262545E-05 0.01562019
vn 0.4373889 7.43385E-05 -0.8992725
vn 0.4369176 0.002425867 -0.8994982
vn 0.437657 5.530674E-05 -0.899142
vn 0.4257167 5.718586E-05 -0.9048565
vn -0.4578307 0.0001083178 -0.8890393
vn -0.6056659 9.967923E-05 -0.7957191
vn -0.9998809 6.120856E-05 -0.01543648
vn -0.9998772 6.144454E-05 0.01566954
vn -0.6884835 0.725159 -0.01161131
vn -0.6879673 0.7256476 0.01168165
vn -0.9998778 0.002737928 0.01539294
vn -0.9998817 0.002682342 -0.01514175
vn -0.586503 0.8099124 -0.00748899
vn -0.493305 0.6648394 -0.5609267
vn -0.3077518 0.8142267 -0.4922639
vn -0.5865397 0.8098862 0.00744998
vn -0.01747693 0.9991152 -0.0382554
vn -0.01741792 0.9991146 0.03829572
vn -0.2971683 0.6598562 -0.6901311
vn -0.6044376 0.002514706 -0.7966484
vn -0.4582645 0.00256079 -0.8888122
vn 0.3026319 0.7034232 -0.6431251
vn 0.2617692 0.7957512 -0.5461291
vn 0.04557056 0.9989611 2.411866E-05
vn 0.2742861 0.7930329 -0.5439356
vn 0.3275183 0.6955721 -0.6394618
vn 0.4249487 0.002593376 -0.9052137
vn 0.4369176 0.002425867 -0.8994982
vn 0.6804883 0.7233717 -0.1169143
vn 0.5048293 0.863215 -0.00272091
vn 0.6796077 0.7242264 0.1167456
vn 0.9999974 0.002296049 -2.037568E-06
vn 0.9954176 0.002528571 0.09559029
vn 0.3275184 0.6959338 0.6390679
vn 0.2742699 0.7929887 0.5440083
vn -0.01741792 0.9991146 0.03829572
vn 0.2618486 0.7957255 0.5461283
vn 0.3028033 0.7034454 0.6430199
vn 0.449745 0.00236967 0.8931538
vn 0.4251846 0.002530143 0.9051031
vn -0.2984168 0.6591536 0.6902636
vn -0.3056363 0.8140058 0.4939443
vn -0.4925031 0.6656489 0.5606714
vn -0.4584942 0.002552383 0.8886937
vn -0.604858 0.002440581 0.7963296
vn -0.6879673 0.7256476 0.01168165
vn -0.5865397 0.8098862 0.00744998
vn -0.9998778 0.002737928 0.01539294
vn 0.8482426 -5.070235E-05 -0.5296077
vn 0.8484659 -7.79444E-05 -0.5292501
vn 0.8484659 -7.79444E-05 -0.5292501
vn 0.8482426 -5.070223E-05 -0.5296077
vn 0.8481381 -3.793937E-05 -0.5297753
vn 0.8481381 -3.793938E-05 -0.5297753
vn -0.999878 8.262545E-05 0.01562019
vn -0.9998778 0.002737928 0.01539294
vn -0.604858 0.002440581 0.7963296
vn -0.6055099 0.0001355419 0.7958378
vn -0.4584942 0.002552383 0.8886937
vn -0.458136 0.0001429271 0.8888821
vn 0.4251846 0.002530143 0.9051031
vn 0.4256481 7.624283E-05 0.9048888
vn 0.449745 0.00236967 0.8931538
vn 0.4373952 7.411448E-05 0.8992694
vn -0.4577439 0.0001063638 0.8890841
vn 0.4258443 5.675214E-05 0.9047965
vn 0.4376632 5.51497E-05 0.899139
vn -0.9998772 6.144454E-05 0.01566954
vn -0.6057591 0.0001008244 0.7956481
vn 0.8517365 -3.323752E-05 0.5239702
vn 0.449745 0.00236967 0.8931538
vn 0.9954176 0.002528571 0.09559029
vn 0.8517367 -3.323806E-05 0.52397
vn 0.8502259 -2.466712E-05 0.5264181
vn 0.8502259 -2.466712E-05 0.526418
vn 1 0 -1.016513E-05
vn 0.9999974 0.002296049 -2.037568E-06
vn 1 0 -1.016513E-05
vn 1 0 -1.018486E-05
vn 1 0 -1.018486E-05
vn 0.04557056 0.9989611 2.411866E-05
vn -0.01741792 0.9991146 0.03829572
vn -0.01747693 0.9991152 -0.0382554
vn 0.7146755 0.5146261 -0.4737075
g SM_training_roadgate_A_0
f 3/3/3 2/2/2 1/1/1
f 4/4/4 3/3/3 1/1/1
f 4/4/4 5/5/5 3/3/3
f 5/5/5 6/6/6 3/3/3
f 1/1/1 2/2/2 7/7/7
f 2/2/2 8/8/8 7/7/7
f 11/11/11 10/10/10 9/9/9
f 12/12/12 11/11/11 9/9/9
f 9/9/9 13/13/13 12/12/12
f 13/13/13 14/14/14 12/12/12
f 13/13/13 15/15/15 14/14/14
f 15/15/15 16/16/16 14/14/14
f 10/10/10 11/11/11 17/17/17
f 11/11/11 18/18/18 17/17/17
f 18/18/18 19/19/19 17/17/17
f 16/16/16 15/15/15 20/20/20
f 20/20/20 21/21/21 16/16/16
f 21/21/21 22/22/22 16/16/16
f 22/22/22 21/21/21 23/23/23
f 22/22/22 23/23/23 24/24/24
f 25/25/25 22/22/22 24/24/24
f 24/24/24 26/26/26 25/25/25
f 26/26/26 27/27/27 25/25/25
f 27/27/27 26/26/26 28/28/28
f 29/29/29 27/27/27 28/28/28
f 29/29/29 28/28/28 30/30/30
f 33/33/33 32/32/32 31/31/31
f 34/34/34 33/33/33 31/31/31
f 35/35/35 33/33/33 34/34/34
f 36/36/36 35/35/35 34/34/34
f 37/37/37 35/35/35 36/36/36
f 38/38/38 37/37/37 36/36/36
f 39/39/39 37/37/37 38/38/38
f 40/40/40 39/39/39 38/38/38
f 31/31/31 32/32/32 41/41/41
f 32/32/32 42/42/42 41/41/41
f 31/31/31 41/41/41 43/43/43
f 44/44/44 31/31/31 43/43/43
f 34/34/34 31/31/31 44/44/44
f 45/45/45 34/34/34 44/44/44
f 36/36/36 34/34/34 45/45/45
f 46/46/46 36/36/36 45/45/45
f 38/38/38 36/36/36 46/46/46
f 47/47/47 38/38/38 46/46/46
f 40/40/40 38/38/38 47/47/47
f 48/48/48 40/40/40 47/47/47
f 51/51/51 50/50/50 49/49/49
f 52/52/52 51/51/51 49/49/49
f 49/49/49 50/50/50 53/53/53
f 49/49/49 53/53/53 54/54/54
f 53/53/53 55/55/55 54/54/54
f 50/50/50 56/56/56 53/53/53
f 53/53/53 56/56/56 57/57/57
f 56/56/56 58/58/58 57/57/57
f 55/55/55 59/59/59 54/54/54
f 54/54/54 59/59/59 60/60/60
f 60/60/60 52/52/52 49/49/49
f 54/54/54 60/60/60 49/49/49
f 59/59/59 61/61/61 60/60/60
f 59/59/59 55/55/55 62/62/62
f 55/55/55 63/63/63 62/62/62
f 53/53/53 57/57/57 63/63/63
f 55/55/55 53/53/53 63/63/63
f 57/57/57 64/64/64 63/63/63
f 64/64/64 65/65/65 63/63/63
f 63/63/63 65/65/65 62/62/62
f 65/65/65 66/66/66 62/62/62
f 62/62/62 66/66/66 67/67/67
f 59/59/59 62/62/62 67/67/67
f 61/61/61 59/59/59 67/67/67
f 66/66/66 68/68/68 67/67/67
f 66/66/66 65/65/65 69/69/69
f 65/65/65 70/70/70 69/69/69
f 70/70/70 71/71/71 69/69/69
f 69/69/69 71/71/71 72/72/72
f 71/71/71 73/73/73 72/72/72
f 71/71/71 70/70/70 74/74/74
f 73/73/73 71/71/71 74/74/74
f 70/70/70 75/75/75 74/74/74
f 65/65/65 64/64/64 75/75/75
f 70/70/70 65/65/65 75/75/75
f 75/75/75 64/64/64 76/76/76
f 77/77/77 75/75/75 76/76/76
f 74/74/74 75/75/75 77/77/77
f 78/78/78 74/74/74 77/77/77
f 79/79/79 74/74/74 78/78/78
f 79/79/79 73/73/73 74/74/74
f 80/80/80 79/79/79 78/78/78
f 78/78/78 77/77/77 81/81/81
f 77/77/77 82/82/82 81/81/81
f 82/82/82 77/77/77 76/76/76
f 82/82/82 83/83/83 81/81/81
f 81/81/81 83/83/83 84/84/84
f 84/84/84 80/80/80 78/78/78
f 81/81/81 84/84/84 78/78/78
f 83/83/83 85/85/85 84/84/84
f 83/83/83 82/82/82 86/86/86
f 85/85/85 83/83/83 86/86/86
f 82/82/82 87/87/87 86/86/86
f 87/87/87 82/82/82 76/76/76
f 88/88/88 85/85/85 86/86/86
f 91/91/91 90/90/90 89/89/89
f 92/92/92 91/91/91 89/89/89
f 92/92/92 89/89/89 93/93/93
f 94/94/94 92/92/92 93/93/93
f 97/97/97 96/96/96 95/95/95
f 98/98/98 97/97/97 95/95/95
f 99/99/99 97/97/97 98/98/98
f 100/100/100 99/99/99 98/98/98
f 101/101/101 99/99/99 100/100/100
f 102/102/102 101/101/101 100/100/100
f 103/103/103 101/101/101 102/102/102
f 104/104/104 103/103/103 102/102/102
f 102/102/102 100/100/100 105/105/105
f 106/106/106 102/102/102 105/105/105
f 104/104/104 102/102/102 106/106/106
f 107/107/107 104/104/104 106/106/106
f 98/98/98 95/95/95 108/108/108
f 109/109/109 98/98/98 108/108/108
f 100/100/100 98/98/98 109/109/109
f 105/105/105 100/100/100 109/109/109
f 112/112/112 111/111/111 110/110/110
f 113/113/113 112/112/112 110/110/110
f 113/113/113 110/110/110 114/114/114
f 115/115/115 113/113/113 114/114/114
f 117/117/117 112/112/112 116/116/116
f 118/118/118 117/117/117 116/116/116
f 118/118/118 116/116/116 119/119/119
f 120/120/120 118/118/118 119/119/119
f 123/123/123 122/122/122 121/121/121
f 124/124/124 68/68/68 66/66/66
f 69/69/69 124/124/124 66/66/66
