g sm_TraningPro_Stair2m_3m_collision
v 0.4283698 -0.3749484 -1.265259
v -0.5256729 -0.365626 -1.265125
v -0.8702123 -0.6333155 -1.053091
v 0.8066957 -0.6474676 -1.053293
v -0.9914129 -0.7353007 -0.7801779
v 0.9616815 -0.7496147 -0.7803834
v 0.9616815 0.7199487 -0.7803835
v 0.8066957 0.6142619 -1.053292
v -0.9914129 0.7342625 -0.7801782
v -0.8702123 0.6284136 -1.053089
v 0.4283698 0.3428702 -1.265258
v -0.5256729 0.3521927 -1.265125
v 1.415124 1.143762 -0.1124135
v 1.415124 -1.136897 -0.1124137
v 0.3238218 -1.136897 -0.1099299
v 0.3238221 1.143762 -0.1099298
v 0.4283698 0.3428702 -1.265258
v -0.5256729 0.3521927 -1.265125
v -0.5256729 -0.365626 -1.265125
v 0.4283698 -0.3749484 -1.265259
v -0.8702123 -0.6333155 -1.053091
v -0.8702123 0.6284136 -1.053089
v -0.9914129 -0.7353007 -0.7801779
v -0.9914129 0.7342625 -0.7801782
v 1.415124 -1.136897 -0.1124137
v 1.415124 1.143762 -0.1124135
v 1.466563 1.136357 -0.2772828
v -1.564252 -1.136898 0.1297139
v -0.6631953 -1.136898 0.1295325
v -1.56425 -1.136898 -0.7596374
v -0.6195056 -1.136898 0.008508606
v 0.297356 -1.136898 0.004662933
v 0.3238218 -1.136897 -0.1099299
v 1.466563 -1.144302 -0.277283
v 1.415124 -1.136897 -0.1124137
v 1.466691 -1.151707 -0.7598497
v 1.466691 -1.151707 -0.7598497
v 1.466689 1.128952 -0.7598494
v 0.9616815 0.7199487 -0.7803835
v -0.9914129 0.7342625 -0.7801782
v -1.56425 1.143761 -0.7596371
v -1.56425 -1.136898 -0.7596374
v -0.9914129 -0.7353007 -0.7801779
v 1.466691 -1.151707 -0.7598497
v 0.9616815 -0.7496147 -0.7803834
v -0.9914129 -0.7353007 -0.7801779
v -1.56425 -1.136898 -0.7596374
v 0.9616815 0.7199487 -0.7803835
v -1.56425 1.143761 -0.7596371
v -0.9914129 0.7342625 -0.7801782
v 0.9616815 0.7199487 -0.7803835
v 1.466689 1.128952 -0.7598494
v 1.466563 -1.144302 -0.277283
v 1.466563 1.136357 -0.2772828
v 1.466689 1.128952 -0.7598494
v -1.564252 1.143762 0.129714
v -1.56425 1.143761 -0.7596371
v -0.663196 1.143762 0.1295326
v -0.6195068 1.143762 0.008508759
v 0.3238221 1.143762 -0.1099298
v 0.2973554 1.143762 0.004663124
v 1.466563 1.136357 -0.2772828
v 1.415124 1.143762 -0.1124135
v 1.466689 1.128952 -0.7598494
v -0.6195068 1.143762 0.008508759
v -0.6195056 -1.136898 0.008508606
v -0.663196 1.143762 0.1295326
v -0.6631953 -1.136898 0.1295325
v 0.2973554 1.143762 0.004663124
v 0.297356 -1.136898 0.004662933
v -0.6195068 1.143762 0.008508759
v -0.6195056 -1.136898 0.008508606
v 0.3238221 1.143762 -0.1099298
v 0.3238218 -1.136897 -0.1099299
v 0.2973554 1.143762 0.004663124
v 0.297356 -1.136898 0.004662933
v -1.564252 1.143762 0.129714
v -0.663196 1.143762 0.1295326
v -0.6631953 -1.136898 0.1295325
v -1.564252 -1.136898 0.1297139
v -1.564252 -1.136898 0.1297139
v -1.56425 1.143761 -0.7596371
v -1.564252 1.143762 0.129714
v -1.564252 -1.136898 0.1297139
v -1.56425 -1.136898 -0.7596374
v -1.56425 1.143761 -0.7596371
v 1.415124 -1.136897 -0.1124137
v 1.466563 1.136357 -0.2772828
v 1.466563 -1.144302 -0.277283
v 1.466563 -1.144302 -0.277283
v 1.466689 1.128952 -0.7598494
v 1.466691 -1.151707 -0.7598497
vt 0.5332106 0.1841627
vt 0.122196 0.1779772
vt 0.1220654 0.1861971
vt 0.5330715 0.1924062
vt 0.1219348 0.1944169
vt 0.5329324 0.2006497
vt 0.5322206 0.3008038
vt 0.5321416 0.3090474
vt 0.1212356 0.2961641
vt 0.1211488 0.3043838
vt 0.5320626 0.3172911
vt 0.121062 0.3126035
vt 0.5326945 0.2513419
vt 0.5320978 0.2501109
vt 0.4807294 0.249314
vt 0.4813273 0.2507799
vt 0.5320626 0.3172911
vt 0.121062 0.3126035
vt 0.122196 0.1779772
vt 0.5332106 0.1841627
vt 0.1220654 0.1861971
vt 0.1211488 0.3043838
vt 0.1219348 0.1944169
vt 0.1212356 0.2961641
vt 0.5320978 0.2501109
vt 0.5326945 0.2513419
vt 0.5325366 0.2678292
vt 0.1211511 0.243736
vt 0.2238878 0.2453297
vt 0.1216735 0.2108566
vt 0.3266245 0.2469234
vt 0.4293611 0.2485172
vt 0.4807294 0.249314
vt 0.532376 0.2336238
vt 0.5320978 0.2501109
vt 0.5326542 0.2171368
vt 0.5326542 0.2171368
vt 0.5323786 0.2843165
vt 0.5322206 0.3008038
vt 0.1212356 0.2961641
vt 0.1214093 0.2797247
vt 0.1216735 0.2108566
vt 0.1219348 0.1944169
vt 0.5326542 0.2171368
vt 0.5329324 0.2006497
vt 0.1219348 0.1944169
vt 0.1216735 0.2108566
vt 0.5322206 0.3008038
vt 0.1214093 0.2797247
vt 0.1212356 0.2961641
vt 0.5322206 0.3008038
vt 0.5323786 0.2843165
vt 0.532376 0.2336238
vt 0.5325366 0.2678292
vt 0.5323786 0.2843165
vt 0.1217566 0.2468458
vt 0.1214093 0.2797247
vt 0.2244911 0.2479698
vt 0.3272256 0.2490939
vt 0.4813273 0.2507799
vt 0.4299601 0.2502179
vt 0.5325366 0.2678292
vt 0.5326945 0.2513419
vt 0.5323786 0.2843165
vt 0.3272256 0.2490939
vt 0.3266245 0.2469234
vt 0.2244911 0.2479698
vt 0.2238878 0.2453297
vt 0.4299601 0.2502179
vt 0.4293611 0.2485172
vt 0.3272256 0.2490939
vt 0.3266245 0.2469234
vt 0.4813273 0.2507799
vt 0.4807294 0.249314
vt 0.4299601 0.2502179
vt 0.4293611 0.2485172
vt 0.1217566 0.2468458
vt 0.2244911 0.2479698
vt 0.2238878 0.2453297
vt 0.1211511 0.243736
vt 0.1211511 0.243736
vt 0.1214093 0.2797247
vt 0.1217566 0.2468458
vt 0.1211511 0.243736
vt 0.1216735 0.2108566
vt 0.1214093 0.2797247
vt 0.5320978 0.2501109
vt 0.5325366 0.2678292
vt 0.532376 0.2336238
vt 0.532376 0.2336238
vt 0.5323786 0.2843165
vt 0.5326542 0.2171368
vn 0.1831259 -0.2650253 -0.9466923
vn -0.2047845 -0.2603612 -0.9435441
vn -0.5202578 -0.5322276 -0.6678815
vn 0.4746813 -0.5355654 -0.6984607
vn -0.6231458 -0.6018757 -0.4994345
vn 0.60668 -0.5658023 -0.5583969
vn 0.6068886 0.5632672 -0.5607285
vn 0.4806576 0.5272934 -0.7006639
vn -0.6141399 0.6032054 -0.5088963
vn -0.5137703 0.5310652 -0.6738024
vn 0.1871479 0.2603631 -0.9471994
vn -0.2014831 0.2585652 -0.9447479
vn 0.002275964 0 0.9999975
vn 0.002275964 0 0.9999975
vn 0.002275964 0 0.9999975
vn 0.002275964 0 0.9999975
vn 0.1871479 0.2603631 -0.9471994
vn -0.2014831 0.2585652 -0.9447479
vn -0.2047845 -0.2603612 -0.9435441
vn 0.1831259 -0.2650253 -0.9466923
vn -0.5202578 -0.5322276 -0.6678815
vn -0.5137703 0.5310652 -0.6738024
vn -0.6231458 -0.6018757 -0.4994345
vn -0.6141399 0.6032054 -0.5088963
vn 0.9546151 0 0.2978425
vn 0.9546151 0 0.2978424
vn 0.9881436 0 0.1535323
vn 0 -1 -1.715721E-07
vn 1.559918E-06 -1 -1.752375E-06
vn -0.0009930602 -0.999995 0.003001754
vn 1.196196E-06 -1 -1.073915E-06
vn 1.335387E-06 -1 -2.753491E-06
vn -0.002697622 -0.9999533 0.009285197
vn -0.002876192 -0.9996365 0.0268078
vn 0.0001021956 -0.9989914 0.04490104
vn -0.004884297 -0.9998704 0.01534178
vn 0.023152 -0.02176241 -0.999495
vn 0.02304748 0.02183318 -0.999496
vn 0.01956159 0.02615767 -0.9994665
vn -0.01653525 0.02686957 -0.9995022
vn -0.02166597 0.01973177 -0.9995705
vn -0.02197193 -0.01996915 -0.9995591
vn -0.01683415 -0.02736218 -0.9994838
vn 0.023152 -0.02176241 -0.999495
vn 0.01912003 -0.02677798 -0.9994585
vn -0.01683415 -0.02736218 -0.9994838
vn -0.02197193 -0.01996915 -0.9995591
vn 0.01956159 0.02615767 -0.9994665
vn -0.02166597 0.01973177 -0.9995705
vn -0.01653525 0.02686957 -0.9995022
vn 0.01956159 0.02615767 -0.9994665
vn 0.02304748 0.02183318 -0.999496
vn 0.9889937 2.558442E-07 0.1479573
vn 0.9881436 0 0.1535323
vn 1 0 0.0002612396
vn -5.92719E-07 1 0
vn 0.0009928668 0.999995 -0.003002282
vn -1.354379E-06 1 6.860523E-07
vn -8.74058E-07 1 1.00315E-07
vn 0.002698367 0.9999533 -0.009286003
vn 3.443517E-07 1 2.742662E-06
vn 0.002876198 0.9996365 -0.02680794
vn -0.000102192 0.9989914 -0.04490149
vn 0.0048843 0.9998704 -0.01534164
vn 0.9405885 4.492591E-07 0.3395489
vn 0.9405872 2.42381E-07 0.3395524
vn 0.9405884 4.415601E-07 0.339549
vn 0.9405871 2.346821E-07 0.3395525
vn 0.004194306 0 0.9999912
vn 0.004194339 0 0.9999912
vn 0.004194317 0 0.9999912
vn 0.00419435 0 0.9999912
vn 0.9743499 -1.25373E-07 0.2250384
vn 0.9743513 2.298891E-07 0.2250317
vn 0.9743499 -1.133255E-07 0.2250382
vn 0.9743515 2.419368E-07 0.2250315
vn 0.0002012962 0 1
vn 0.0002012963 0 1
vn 0.0002012963 0 1
vn 0.0002012962 0 1
vn -1 0 -2.957338E-06
vn -1 0 -3.047687E-06
vn -1 0 -3.088299E-06
vn -1 0 -2.957338E-06
vn -1 0 -2.916726E-06
vn -1 0 -3.047687E-06
vn 0.9546151 0 0.2978425
vn 0.9881436 0 0.1535323
vn 0.9889937 2.558442E-07 0.1479573
vn 0.9889937 2.558442E-07 0.1479573
vn 1 0 0.0002612396
vn 1 6.02112E-07 0.0002637021
g sm_TraningPro_Stair2m_3m_collision_0
f 3/3/3 2/2/2 1/1/1
f 4/4/4 3/3/3 1/1/1
f 5/5/5 3/3/3 4/4/4
f 6/6/6 5/5/5 4/4/4
f 7/7/7 6/6/6 4/4/4
f 8/8/8 7/7/7 4/4/4
f 8/8/8 4/4/4 1/1/1
f 7/7/7 8/8/8 9/9/9
f 8/8/8 10/10/10 9/9/9
f 8/8/8 11/11/11 10/10/10
f 11/11/11 8/8/8 1/1/1
f 11/11/11 12/12/12 10/10/10
f 15/15/15 14/14/14 13/13/13
f 16/16/16 15/15/15 13/13/13
f 19/19/19 18/18/18 17/17/17
f 20/20/20 19/19/19 17/17/17
f 19/19/19 21/21/21 18/18/18
f 21/21/21 22/22/22 18/18/18
f 21/21/21 23/23/23 22/22/22
f 23/23/23 24/24/24 22/22/22
f 27/27/27 26/26/26 25/25/25
f 30/30/30 29/29/29 28/28/28
f 31/31/31 29/29/29 30/30/30
f 32/32/32 31/31/31 30/30/30
f 33/33/33 32/32/32 30/30/30
f 34/34/34 33/33/33 30/30/30
f 35/35/35 33/33/33 34/34/34
f 36/36/36 34/34/34 30/30/30
f 39/39/39 38/38/38 37/37/37
f 42/42/42 41/41/41 40/40/40
f 43/43/43 42/42/42 40/40/40
f 46/46/46 45/45/45 44/44/44
f 47/47/47 46/46/46 44/44/44
f 45/45/45 48/48/48 44/44/44
f 51/51/51 50/50/50 49/49/49
f 52/52/52 51/51/51 49/49/49
f 55/55/55 54/54/54 53/53/53
f 58/58/58 57/57/57 56/56/56
f 59/59/59 57/57/57 58/58/58
f 60/60/60 57/57/57 59/59/59
f 61/61/61 60/60/60 59/59/59
f 62/62/62 57/57/57 60/60/60
f 63/63/63 62/62/62 60/60/60
f 64/64/64 57/57/57 62/62/62
f 67/67/67 66/66/66 65/65/65
f 68/68/68 66/66/66 67/67/67
f 71/71/71 70/70/70 69/69/69
f 72/72/72 70/70/70 71/71/71
f 75/75/75 74/74/74 73/73/73
f 76/76/76 74/74/74 75/75/75
f 79/79/79 78/78/78 77/77/77
f 80/80/80 79/79/79 77/77/77
f 83/83/83 82/82/82 81/81/81
f 86/86/86 85/85/85 84/84/84
f 89/89/89 88/88/88 87/87/87
f 92/92/92 91/91/91 90/90/90
