g sm_TraningPro_GlassWall_8m_B_collision
v -1.907349E-08 -0.0769474 -0.0185667
v 3.032684E-06 0.270966 -0.0332455
v -7.901646 0.270966 -0.03324535
v -7.901647 -0.0769474 -0.01856701
v -7.901653 -0.07396305 3.817759
v -7.901653 0.3787567 3.816826
v -2.46048E-06 0.3787567 3.816827
v -3.681183E-06 -0.07396282 3.81776
v -7.901647 -0.0769474 -0.01856701
v -7.901646 0.270966 -0.03324535
v -7.906405 0.6006747 0.3649066
v -7.906405 0.2846176 0.4841729
v -7.901646 0.270966 -0.03324535
v 3.032684E-06 0.270966 -0.0332455
v 0.004748821 0.6006747 0.3649074
v -7.906405 0.6006747 0.3649066
v -7.906397 0.9782797 1.210759
v 0.004757671 0.9782798 1.210759
v -7.906404 1.068827 2.119158
v 0.004750652 1.068827 2.11916
v -7.906407 0.828442 3.104646
v 0.004749737 0.8284422 3.104647
v -7.901653 0.3787567 3.816826
v 0.004749737 0.8284422 3.104647
v -2.46048E-06 0.3787567 3.816827
v -1.907349E-08 -0.0769474 -0.0185667
v 0.004749126 0.2846176 0.484173
v 0.004748821 0.6006747 0.3649074
v 3.032684E-06 0.270966 -0.0332455
v 0.004749126 0.2846176 0.484173
v -1.907349E-08 -0.0769474 -0.0185667
v -7.901647 -0.0769474 -0.01856701
v -7.906405 0.2846176 0.4841729
v 0.004758587 0.637001 1.264048
v -7.906397 0.637001 1.264047
v 0.004752178 0.7241985 2.101249
v -7.906404 0.7241986 2.101249
v 0.004749126 0.5026699 3.01729
v -7.906407 0.5026698 3.017289
v -3.681183E-06 -0.07396282 3.81776
v -7.901653 -0.07396305 3.817759
v -7.906397 0.637001 1.264047
v -7.906405 0.2846176 0.4841729
v -7.906405 0.6006747 0.3649066
v -7.906397 0.9782797 1.210759
v -7.906404 0.7241986 2.101249
v -7.906397 0.637001 1.264047
v -7.906397 0.9782797 1.210759
v -7.906404 1.068827 2.119158
v -7.906407 0.5026698 3.017289
v -7.906404 0.7241986 2.101249
v -7.906404 1.068827 2.119158
v -7.906407 0.828442 3.104646
v -7.901653 -0.07396305 3.817759
v -7.906407 0.5026698 3.017289
v -7.906407 0.828442 3.104646
v -7.901653 0.3787567 3.816826
v 0.004749126 0.2846176 0.484173
v 0.004758587 0.637001 1.264048
v 0.004757671 0.9782798 1.210759
v 0.004748821 0.6006747 0.3649074
v 0.004758587 0.637001 1.264048
v 0.004752178 0.7241985 2.101249
v 0.004750652 1.068827 2.11916
v 0.004757671 0.9782798 1.210759
v 0.004752178 0.7241985 2.101249
v 0.004749126 0.5026699 3.01729
v 0.004749737 0.8284422 3.104647
v 0.004750652 1.068827 2.11916
v 0.004749126 0.5026699 3.01729
v -3.681183E-06 -0.07396282 3.81776
v -2.46048E-06 0.3787567 3.816827
v 0.004749737 0.8284422 3.104647
v 0.09436643 0.2249573 0.2193979
v 0.09436643 -0.09526665 0.1579572
v -1.904438 -0.09526665 0.1579575
v -1.904438 0.2249573 0.2193982
v 0.09436643 -0.7301764 -0.1328428
v 0.09436643 -0.7301764 -0.1953125
v -1.904438 -0.7301764 -0.1953122
v -1.904438 -0.7301764 -0.1328425
v -1.904438 -0.09526665 0.1579575
v -1.904438 -0.006977348 -0.1982162
v -1.904438 0.2249573 0.2193982
v -1.904438 -0.7301764 -0.1953122
v -1.904438 -0.7301764 -0.1328425
v 0.09436643 0.2249573 0.2193979
v -1.904438 0.2249573 0.2193982
v -1.904438 -0.006977348 -0.1982162
v 0.09436643 -0.006977348 -0.1982165
v 0.09436643 0.2249573 0.2193979
v 0.09436643 -0.006977348 -0.1982165
v 0.09436643 -0.09526665 0.1579572
v 0.09436643 -0.7301764 -0.1328428
v 0.09436643 -0.7301764 -0.1953125
v -1.904438 -0.7301764 -0.1328425
v -1.904438 -0.09526665 0.1579575
v 0.09436643 -0.09526665 0.1579572
v 0.09436643 -0.7301764 -0.1328428
v 0.09436643 -0.7301764 -0.1953125
v 0.09436643 -0.006977348 -0.1982165
v -1.904438 -0.006977348 -0.1982162
v -1.904438 -0.7301764 -0.1953122
v -7.947569 0.5069851 3.472933
v -7.947569 0.1867612 3.534374
v -5.948765 0.1867612 3.534374
v -5.948765 0.5069851 3.472933
v -7.947569 -0.4481485 3.825174
v -7.947569 -0.4481485 3.887644
v -5.948765 -0.4481485 3.887644
v -5.948765 -0.4481485 3.825174
v -5.948765 0.1867612 3.534374
v -7.947569 0.1867612 3.534374
v -7.947569 -0.4481485 3.825174
v -5.948765 -0.4481485 3.825174
v -5.948765 0.2750505 3.890548
v -5.948765 0.1867612 3.534374
v -5.948765 -0.4481485 3.825174
v -5.948765 -0.4481485 3.887644
v -5.948765 0.5069851 3.472933
v -7.947569 0.5069851 3.472933
v -5.948765 0.5069851 3.472933
v -5.948765 0.2750505 3.890548
v -7.947569 0.2750505 3.890548
v -7.947569 0.5069851 3.472933
v -7.947569 0.2750505 3.890548
v -7.947569 0.1867612 3.534374
v -7.947569 -0.4481485 3.825174
v -7.947569 -0.4481485 3.887644
v -7.947569 -0.4481485 3.887644
v -7.947569 0.2750505 3.890548
v -5.948765 0.2750505 3.890548
v -5.948765 -0.4481485 3.887644
vt 0.6390508 0.08470558
vt 0.6360846 0.07570405
vt 0.9669292 0.07565154
vt 0.9646789 0.08455484
vt 0.9663085 0.2563755
vt 0.9695179 0.2652683
vt 0.6349311 0.2655009
vt 0.6373962 0.2567031
vt 0.9643345 0.08430225
vt 0.9699649 0.07753173
vt 0.9785813 0.09901716
vt 0.9704561 0.1120685
vt 0.6275612 0.101396
vt 0.9722465 0.1014448
vt 0.9736994 0.1316742
vt 0.6261035 0.131709
vt 0.6257486 0.1729317
vt 0.974066 0.1728978
vt 0.6257346 0.2141213
vt 0.9740947 0.2140824
vt 0.6258982 0.2553108
vt 0.9739436 0.2552915
vt 0.6270288 0.2925889
vt 0.9739436 0.2552915
vt 0.9728063 0.2926444
vt 0.6393749 0.08452585
vt 0.6333294 0.1119013
vt 0.6252327 0.09877244
vt 0.6337627 0.07762236
vt 0.6333294 0.1119013
vt 0.6393682 0.08496858
vt 0.9643832 0.0847858
vt 0.9704561 0.1120685
vt 0.6309772 0.1491375
vt 0.9727486 0.1493085
vt 0.6307876 0.1862988
vt 0.9728778 0.1864964
vt 0.6321937 0.2235863
vt 0.9714389 0.2236403
vt 0.6377159 0.2564462
vt 0.9659325 0.2561696
vt 0.9727486 0.1493085
vt 0.9704561 0.1120685
vt 0.9814016 0.1197155
vt 0.9824439 0.1393736
vt 0.9728778 0.1864964
vt 0.9727486 0.1493085
vt 0.9828465 0.1583674
vt 0.9829713 0.1773978
vt 0.9714389 0.2236403
vt 0.9728778 0.1864964
vt 0.9826769 0.1962077
vt 0.9819929 0.215492
vt 0.9656219 0.256529
vt 0.9714389 0.2236403
vt 0.9804533 0.235111
vt 0.9708854 0.2633635
vt 0.6333294 0.1119013
vt 0.6309772 0.1491375
vt 0.6212915 0.1391127
vt 0.6223678 0.1195342
vt 0.6309772 0.1491375
vt 0.6307876 0.1862988
vt 0.6206946 0.1770535
vt 0.6208516 0.158022
vt 0.6307876 0.1862988
vt 0.6321937 0.2235863
vt 0.6216447 0.2152626
vt 0.6209785 0.195922
vt 0.6321937 0.2235863
vt 0.6379907 0.2568398
vt 0.6327573 0.2635993
vt 0.6233003 0.2353179
vt 1 0.75
vt 1 0
vt 0 0
vt 0 0.75
vt 0 0
vt 0 1
vt 1 1
vt 1 0
vt 0 0
vt 1 0.5
vt 0.75 0
vt 1 1
vt 0 1
vt 1 0
vt 0 0
vt 0 0.5
vt 1 0.5
vt 0.25 0
vt 0 0.5
vt 1 0.5
vt 1 1
vt 0 1
vt 1 1
vt 1 0
vt 0 0.5
vt 0 1
vt 1 1
vt 1 0.5
vt 0 0.5
vt 0 1
vt 1 0.75
vt 1 0
vt 0 0
vt 0 0.75
vt 0 0
vt 0 1
vt 1 1
vt 1 0
vt 1 0
vt 0 0
vt 0 1
vt 1 1
vt 1 0.5
vt 0 0
vt 0 1
vt 1 1
vt 0.75 0
vt 1 0
vt 0 0
vt 0 0.5
vt 1 0.5
vt 0.25 0
vt 0 0.5
vt 1 0
vt 1 1
vt 0 1
vt 1 1
vt 1 0.5
vt 0 0.5
vt 0 1
vn 0 -0.6396965 -0.7686275
vn 0 -0.63972 -0.7686081
vn 0 -0.63972 -0.7686081
vn 0 -0.6396965 -0.7686275
vn -0.1831174 -0.7801566 0.5981836
vn 0 -0.6604473 0.7508724
vn 0 -0.6604473 0.7508724
vn 0 -0.6604473 0.7508724
vn -0.9999721 -0.004573043 -0.005906847
vn -0.9999723 -0.004763587 -0.005716306
vn -0.9999915 -0.002286566 -0.003429849
vn -0.9999936 -0.001905476 -0.003048761
vn 0 0.7946123 -0.6071174
vn 0 0.7946123 -0.6071174
vn 0 0.8700222 -0.4930126
vn 0 0.8700222 -0.4930126
vn 0 0.975899 -0.2182229
vn 0 0.975899 -0.2182229
vn 0 0.9949156 0.1007123
vn 0 0.9949156 0.1007123
vn 0 0.9165597 0.3998978
vn 0 0.9657776 0.2593715
vn 0 0.8454164 0.5341079
vn -0.6949208 0.4081599 0.5920225
vn 0 0.8454164 0.5341079
vn 0.9999721 -0.004577841 -0.005913044
vn 0.9999936 -0.001907293 -0.003051668
vn 0.9999915 -0.002288747 -0.00343312
vn 0.9999723 -0.004768586 -0.005722302
vn 0 -0.8722978 0.488975
vn 0 -0.8012571 0.5983202
vn 0 -0.8012571 0.5983202
vn 0 -0.8722978 0.488975
vn 0 -0.975899 0.2182229
vn 0 -0.975899 0.2182229
vn 0 -0.9949156 -0.1007123
vn 0 -0.9949156 -0.1007123
vn 0 -0.9179171 -0.3967722
vn 0 -0.9179171 -0.3967722
vn 0 -0.8511865 -0.5248634
vn 0 -0.8511865 -0.5248634
vn -1 0 0
vn -0.9999936 -0.001905476 -0.003048761
vn -0.9999915 -0.002286566 -0.003429849
vn -1 0 0
vn -1 0 0
vn -1 0 0
vn -1 0 0
vn -1 0 0
vn -0.9999948 -0.001143287 0.003048764
vn -1 0 0
vn -1 0 0
vn -1 0 0
vn -0.9999888 -0.003620387 0.003048746
vn -0.9999948 -0.001143287 0.003048764
vn -0.6958856 -0.634843 -0.3357343
vn -0.9999881 -0.00381093 0.003048744
vn 0.9999936 -0.001907293 -0.003051668
vn 1 0 0
vn 1 0 0
vn 0.9999915 -0.002288747 -0.00343312
vn 1 0 0
vn 1 0 0
vn 1 0 0
vn 1 0 0
vn 1 0 0
vn 0.9999948 -0.001144377 0.003051672
vn 0.9999951 -0.0007629183 0.003051673
vn 1 0 0
vn 0.9999948 -0.001144377 0.003051672
vn 0.9999726 -0.004196356 0.006103791
vn 0.9999741 -0.003814875 0.0061038
vn 0.9999951 -0.0007629183 0.003051673
vn 0 -0.1884795 0.9820771
vn 0 -0.1884795 0.9820771
vn 0 -0.1884795 0.9820771
vn 0 -0.1884795 0.9820771
vn 0 -1 0
vn 0 -1 0
vn 0 -1 0
vn 0 -1 0
vn -1 0 0
vn -1 0 0
vn -1 0 0
vn -1 0 0
vn -1 0 0
vn 0 0.8742112 -0.4855458
vn 0 0.8742112 -0.4855458
vn 0 0.8741874 -0.4855889
vn 0 0.8741874 -0.4855889
vn 1 0 0
vn 1 0 0
vn 1 0 0
vn 1 0 0
vn 1 0 0
vn 0 -0.4165529 0.9091115
vn 0 -0.4165102 0.909131
vn 0 -0.4165102 0.909131
vn 0 -0.4165529 0.9091115
vn 0 -0.004196172 -0.9999912
vn 0 -0.004005432 -0.999992
vn 0 -0.004005432 -0.999992
vn 0 -0.004196172 -0.9999912
vn 0 -0.1883383 -0.9821042
vn 0 -0.1881544 -0.9821394
vn 0 -0.1881544 -0.9821394
vn 0 -0.1883383 -0.9821042
vn 0 -1 0
vn 0 -1 0
vn 0 -1 0
vn 0 -1 0
vn 0 -0.416287 -0.9092333
vn 0 -0.416287 -0.9092333
vn 0 -0.416287 -0.9092333
vn 0 -0.416287 -0.9092333
vn 1 0 0
vn 1 0 0
vn 1 0 0
vn 1 0 0
vn 1 0 0
vn 0 0.8743731 0.4852542
vn 0 0.8743731 0.4852542
vn 0 0.8743731 0.4852542
vn 0 0.8743731 0.4852542
vn -1 0 0
vn -1 0 0
vn -1 0 0
vn -1 0 0
vn -1 0 0
vn 0 -0.004001493 0.999992
vn 0 -0.004192037 0.9999913
vn 0 -0.004192037 0.9999913
vn 0 -0.004001493 0.999992
g sm_TraningPro_GlassWall_8m_B_collision_0
f 3/3/3 2/2/2 1/1/1
f 4/4/4 3/3/3 1/1/1
f 7/7/7 6/6/6 5/5/5
f 8/8/8 7/7/7 5/5/5
f 11/11/11 10/10/10 9/9/9
f 12/12/12 11/11/11 9/9/9
f 15/15/15 14/14/14 13/13/13
f 16/16/16 15/15/15 13/13/13
f 15/15/15 16/16/16 17/17/17
f 18/18/18 15/15/15 17/17/17
f 18/18/18 17/17/17 19/19/19
f 20/20/20 18/18/18 19/19/19
f 20/20/20 19/19/19 21/21/21
f 22/22/22 20/20/20 21/21/21
f 24/24/24 21/21/21 23/23/23
f 25/25/25 24/24/24 23/23/23
f 28/28/28 27/27/27 26/26/26
f 29/29/29 28/28/28 26/26/26
f 32/32/32 31/31/31 30/30/30
f 33/33/33 32/32/32 30/30/30
f 30/30/30 34/34/34 33/33/33
f 34/34/34 35/35/35 33/33/33
f 34/34/34 36/36/36 35/35/35
f 36/36/36 37/37/37 35/35/35
f 36/36/36 38/38/38 37/37/37
f 38/38/38 39/39/39 37/37/37
f 38/38/38 40/40/40 39/39/39
f 40/40/40 41/41/41 39/39/39
f 44/44/44 43/43/43 42/42/42
f 45/45/45 44/44/44 42/42/42
f 48/48/48 47/47/47 46/46/46
f 49/49/49 48/48/48 46/46/46
f 52/52/52 51/51/51 50/50/50
f 53/53/53 52/52/52 50/50/50
f 56/56/56 55/55/55 54/54/54
f 57/57/57 56/56/56 54/54/54
f 60/60/60 59/59/59 58/58/58
f 61/61/61 60/60/60 58/58/58
f 64/64/64 63/63/63 62/62/62
f 65/65/65 64/64/64 62/62/62
f 68/68/68 67/67/67 66/66/66
f 69/69/69 68/68/68 66/66/66
f 72/72/72 71/71/71 70/70/70
f 73/73/73 72/72/72 70/70/70
f 76/76/76 75/75/75 74/74/74
f 77/77/77 76/76/76 74/74/74
f 80/80/80 79/79/79 78/78/78
f 81/81/81 80/80/80 78/78/78
f 84/84/84 83/83/83 82/82/82
f 82/82/82 83/83/83 85/85/85
f 86/86/86 82/82/82 85/85/85
f 89/89/89 88/88/88 87/87/87
f 90/90/90 89/89/89 87/87/87
f 93/93/93 92/92/92 91/91/91
f 92/92/92 93/93/93 94/94/94
f 95/95/95 92/92/92 94/94/94
f 98/98/98 97/97/97 96/96/96
f 99/99/99 98/98/98 96/96/96
f 102/102/102 101/101/101 100/100/100
f 103/103/103 102/102/102 100/100/100
f 106/106/106 105/105/105 104/104/104
f 107/107/107 106/106/106 104/104/104
f 110/110/110 109/109/109 108/108/108
f 111/111/111 110/110/110 108/108/108
f 114/114/114 113/113/113 112/112/112
f 115/115/115 114/114/114 112/112/112
f 118/118/118 117/117/117 116/116/116
f 119/119/119 118/118/118 116/116/116
f 120/120/120 116/116/116 117/117/117
f 123/123/123 122/122/122 121/121/121
f 124/124/124 123/123/123 121/121/121
f 127/127/127 126/126/126 125/125/125
f 126/126/126 127/127/127 128/128/128
f 129/129/129 126/126/126 128/128/128
f 132/132/132 131/131/131 130/130/130
f 133/133/133 132/132/132 130/130/130
