g SM_training_wall_D
v -0.2440311 0.007987148 -0.03791504
v -0.2444916 1.943854 -0.03513306
v -0.2500001 1.944178 -0.02593506
v -0.2500001 0.007981937 -0.02833374
v 0.1819665 0.007751405 -0.2471411
v 0.1822108 1.943765 -0.2472278
v 0.1928123 0.007674986 -0.2459753
v 0.1928784 1.944137 -0.2459228
v -0.2424231 -9.610994E-08 -0.03027466
v 0.1821701 -9.610994E-08 -0.238374
v 0.1819665 0.007751405 -0.2471411
v -0.2440311 0.007987148 -0.03791504
v -0.2500001 0.007981937 -0.02833374
v -0.2500001 0.007981937 -0.02833374
v -0.2500001 0.00798156 0.02917969
v -0.2424228 -9.610994E-08 0.0311145
v -0.2424231 -9.610994E-08 -0.03027466
v -0.2440237 0.007986772 0.03875488
v 0.1821701 -9.610994E-08 -0.238374
v 0.1821704 -9.610994E-08 0.2383813
v 0.1934325 -9.610994E-08 0.2352441
v 0.1934328 -9.610994E-08 -0.2352527
v 0.2424983 -9.610994E-08 -0.1964148
v 0.2450947 0.008026279 -0.2039526
v 0.1928123 0.007674986 -0.2459753
v 0.2424983 -9.610994E-08 0.196405
v 0.1928584 0.007749279 0.2459277
v 0.2500001 0.008026279 0.1937061
v 0.2500001 0.008026279 -0.1937158
v -0.2424228 -9.610994E-08 0.0311145
v -0.2440237 0.007986772 0.03875488
v 0.1820187 0.007680117 0.247168
v -0.2424231 -9.610994E-08 -0.03027466
v 0.1819665 0.007751405 -0.2471411
v -0.2500001 0.00798156 0.02917969
v -0.2500001 1.944103 0.026698
v -0.2444864 1.943853 0.03597412
v -0.2440237 0.007986772 0.03875488
v -0.2500001 0.007981937 -0.02833374
v -0.2500001 1.944178 -0.02593506
v 0.1928584 0.007749279 0.2459277
v 0.2450947 0.008026279 0.2039429
v 0.2424983 -9.610994E-08 0.196405
v 0.2500001 0.008026279 0.1937061
v 0.1820187 0.007680117 0.247168
v 0.1822122 1.943772 0.247229
v 0.1928754 1.944146 0.2459143
v 0.1928584 0.007749279 0.2459277
v 0.2452188 1.943871 0.2038428
v 0.2450947 0.008026279 0.2039429
v 0.2500001 1.943871 0.193866
v 0.2500001 0.008026279 0.1937061
v 0.2500001 0.008026279 -0.1937158
v 0.2500001 1.943871 -0.1938757
v 0.2452188 1.943871 -0.2038525
v 0.2450947 0.008026279 -0.2039526
v 0.1928784 1.944137 -0.2459228
v 0.1928123 0.007674986 -0.2459753
v 0.2500001 1.943871 0.193866
v 0.2500001 0.008026279 0.1937061
v -0.2408307 1.954351 0.03317383
v 0.1820987 1.954256 0.2424414
v 0.1822122 1.943772 0.247229
v -0.2444864 1.943853 0.03597412
v -0.2071924 1.995618 0.006081543
v 0.1821068 1.995767 0.1962769
v -0.2461955 1.954681 0.02340332
v -0.217717 1.989683 0.000423584
v -0.2071924 1.995618 0.006081543
v -0.2408307 1.954351 0.03317383
v -0.2071965 1.995626 -0.005222168
v -0.2408391 1.954349 -0.03233276
v -0.2462207 1.954651 -0.02261841
v -0.1955984 2 0.000423584
v 0.1819342 2 -0.1841064
v 0.1820818 1.995784 -0.19547
v 0.1821068 1.995767 0.1962769
v 0.1819342 2 0.1849548
v 0.1923701 1.996326 -0.1880908
v 0.1923701 1.996326 0.1888806
v 0.2454674 1.953648 -0.1936999
v 0.1929317 1.991496 -0.1989819
v 0.2389412 1.954442 -0.2038831
v 0.1931351 1.954542 -0.2405884
v 0.1820949 1.954226 -0.2423987
v 0.1928784 1.944137 -0.2459228
v 0.2452188 1.943871 -0.2038525
v 0.2452188 1.953848 0.1934155
v 0.2390488 1.954401 0.2039087
v 0.1930994 1.991184 0.1998975
v 0.1820987 1.954256 0.2424414
v 0.1930884 1.954541 0.2406946
v -0.2500001 1.944103 0.026698
v -0.2500001 1.944178 -0.02593506
v -0.2462207 1.954651 -0.02261841
v -0.2461955 1.954681 0.02340332
v -0.217717 1.989683 0.000423584
v -0.2408307 1.954351 0.03317383
v -0.2444864 1.943853 0.03597412
v -0.2444916 1.943854 -0.03513306
v 0.1822108 1.943765 -0.2472278
v 0.1820949 1.954226 -0.2423987
v -0.2408391 1.954349 -0.03233276
v 0.1820818 1.995784 -0.19547
v -0.2071965 1.995626 -0.005222168
v -0.2462207 1.954651 -0.02261841
v -0.2500001 1.944178 -0.02593506
v 0.1931351 1.954542 -0.2405884
v 0.1928784 1.944137 -0.2459228
v 0.1930884 1.954541 0.2406946
v 0.2390488 1.954401 0.2039087
v 0.2452188 1.943871 0.2038428
v 0.1928754 1.944146 0.2459143
v 0.1930994 1.991184 0.1998975
v 0.1820987 1.954256 0.2424414
v 0.1822122 1.943772 0.247229
v 0.2500001 1.943871 0.193866
v 0.2452188 1.953848 0.1934155
v 0.2452188 1.953848 0.1934155
v 0.2454674 1.953648 -0.1936999
v 0.2500001 1.943871 -0.1938757
v 0.2500001 1.943871 0.193866
v 0.2452188 1.943871 -0.2038525
v 0.2389412 1.954442 -0.2038831
v -0.2444864 1.943853 0.03597412
v 0.1822122 1.943772 0.247229
v 0.1820187 0.007680117 0.247168
v -0.2440237 0.007986772 0.03875488
vt 0.6501882 0.2596905
vt 0.650188 0.005286572
vt 0.6487422 0.005286572
vt 0.6487422 0.2596905
vt 0.7127414 0.2596905
vt 0.7127414 0.005286572
vt 0.7141638 0.2596904
vt 0.7141638 0.005286572
vt 0.9515752 0.9094088
vt 0.9242331 0.853623
vt 0.9227061 0.8538198
vt 0.9501715 0.9098303
vt 0.9517384 0.9108651
vt 0.9517384 0.9108651
vt 0.9594747 0.9108664
vt 0.9596371 0.9094092
vt 0.9515752 0.9094088
vt 0.9610412 0.9098295
vt 0.9242331 0.853623
vt 0.9868795 0.8536242
vt 0.9864704 0.8521515
vt 0.9246404 0.8521507
vt 0.9297418 0.8457014
vt 0.9284269 0.8450012
vt 0.9228644 0.8520646
vt 0.9813699 0.8457015
vt 0.9882488 0.8520546
vt 0.9810285 0.8442556
vt 0.9300832 0.8442556
vt 0.9596371 0.9094092
vt 0.9610412 0.9098295
vt 0.9884033 0.8538113
vt 0.9515752 0.9094088
vt 0.9227061 0.8538198
vt 0.6415057 0.2596905
vt 0.6415057 0.005286572
vt 0.6400549 0.005286572
vt 0.6400549 0.2596904
vt 0.6487422 0.2596905
vt 0.6487422 0.005286572
vt 0.9882488 0.8520546
vt 0.9826853 0.8450027
vt 0.9813699 0.8457015
vt 0.9810285 0.8442556
vt 0.5776112 0.2596905
vt 0.5776112 0.005286572
vt 0.5761886 0.005286572
vt 0.5761886 0.2596905
vt 0.5673733 0.005286572
vt 0.5673733 0.2596905
vt 0.5659006 0.005286572
vt 0.5659006 0.2596905
vt 0.7244554 0.2596905
vt 0.7244554 0.005286572
vt 0.7229826 0.005286572
vt 0.7229826 0.2596905
vt 0.7141638 0.005286572
vt 0.7141638 0.2596904
vt 0.7753831 0.005286572
vt 0.7753831 0.2596905
vt 0.9497252 0.9917287
vt 0.9217653 0.93612
vt 0.920273 0.9364986
vt 0.9485227 0.9926807
vt 0.9548926 0.9860255
vt 0.9298108 0.9354843
vt 0.9514433 0.9926345
vt 0.9556022 0.9873641
vt 0.9548926 0.9860255
vt 0.9497252 0.9917287
vt 0.9563105 0.9860262
vt 0.9614818 0.9917335
vt 0.9597763 0.9926423
vt 0.9556027 0.9844674
vt 0.9798896 0.9355186
vt 0.9814164 0.9354872
vt 0.9298108 0.9354843
vt 0.9313324 0.9355194
vt 0.9804972 0.9341492
vt 0.9307315 0.9341511
vt 0.9819242 0.9252231
vt 0.9819251 0.9341374
vt 0.9835561 0.9263085
vt 0.9893152 0.934301
vt 0.9895429 0.9361147
vt 0.9912191 0.9339396
vt 0.9844081 0.9244358
vt 0.9294462 0.9252624
vt 0.9277642 0.9262941
vt 0.9292759 0.9341137
vt 0.9217653 0.93612
vt 0.9219825 0.9343073
vt 0.9505593 0.9945088
vt 0.9606628 0.9944993
vt 0.9597763 0.9926423
vt 0.9514433 0.9926345
vt 0.9556022 0.9873641
vt 0.9497252 0.9917287
vt 0.9485227 0.9926807
vt 0.9626836 0.9926859
vt 0.9910349 0.9364921
vt 0.9895429 0.9361147
vt 0.9614818 0.9917335
vt 0.9814164 0.9354872
vt 0.9563105 0.9860262
vt 0.9597763 0.9926423
vt 0.9606628 0.9944993
vt 0.9893152 0.934301
vt 0.9912191 0.9339396
vt 0.9219825 0.9343073
vt 0.9277642 0.9262941
vt 0.9269204 0.9244359
vt 0.9200889 0.933935
vt 0.9292759 0.9341137
vt 0.9217653 0.93612
vt 0.920273 0.9364986
vt 0.9293203 0.9237427
vt 0.9294462 0.9252624
vt 0.9294462 0.9252624
vt 0.9819242 0.9252231
vt 0.9820103 0.9237427
vt 0.9293203 0.9237427
vt 0.9844081 0.9244358
vt 0.9835561 0.9263085
vt 0.6400549 0.005286572
vt 0.5776112 0.005286572
vt 0.5776112 0.2596905
vt 0.6400549 0.2596904
vn -0.4537491 -0.00374915 -0.8911216
vn -0.4540411 0.002526435 -0.8909771
vn -0.9961805 0.001757385 -0.08729954
vn -0.9960686 -0.004039121 -0.0884924
vn -0.4320119 -0.002632775 -0.9018641
vn -0.4318474 0.00248911 -0.9019433
vn 0.5658177 -0.002944518 -0.8245252
vn 0.5668216 0.001750245 -0.8238388
vn -0.0126386 -0.9997237 -0.01981763
vn -0.02171992 -0.9987174 -0.04573463
vn -0.4320119 -0.002632775 -0.9018641
vn -0.4537491 -0.00374915 -0.8911216
vn -0.9960686 -0.004039121 -0.0884924
vn -0.9960686 -0.004039121 -0.0884924
vn -0.9960642 -0.004033866 0.08854226
vn -0.01257229 -0.9997259 0.01975094
vn -0.0126386 -0.9997237 -0.01981763
vn -0.4524297 -0.003746865 0.8917922
vn -0.02171992 -0.9987174 -0.04573463
vn -0.02155189 -0.998728 0.04558524
vn 0.02342374 -0.9992133 0.03200109
vn 0.02336913 -0.9992163 -0.03194918
vn 0.08866725 -0.9960054 -0.01055539
vn 0.6737721 -0.00397979 -0.7389285
vn 0.5658177 -0.002944518 -0.8245252
vn 0.08869309 -0.9960026 0.01059965
vn 0.5657764 -0.002946634 0.8245535
vn 0.9999167 -0.004391592 0.01213625
vn 0.9999167 -0.004391592 -0.01213625
vn -0.01257229 -0.9997259 0.01975094
vn -0.4524297 -0.003746865 0.8917922
vn -0.4306294 -0.002622491 0.902525
vn -0.0126386 -0.9997237 -0.01981763
vn -0.4320119 -0.002632775 -0.9018641
vn -0.9960642 -0.004033866 0.08854226
vn -0.996159 0.00175678 0.08754578
vn -0.4526776 0.002518562 0.8916706
vn -0.4524297 -0.003746865 0.8917922
vn -0.9960686 -0.004039121 -0.0884924
vn -0.9961805 0.001757385 -0.08729954
vn 0.5657764 -0.002946634 0.8245535
vn 0.6738074 -0.003983136 0.7388963
vn 0.08869309 -0.9960026 0.01059965
vn 0.9999167 -0.004391592 0.01213625
vn -0.4306294 -0.002622491 0.902525
vn -0.4303747 0.002483961 0.902647
vn 0.5671895 0.001726076 0.8235855
vn 0.5657764 -0.002946634 0.8245535
vn 0.6740301 0.00162256 0.7387021
vn 0.6738074 -0.003983136 0.7388963
vn 0.9999231 0.002337327 0.01218368
vn 0.9999167 -0.004391592 0.01213625
vn 0.9999167 -0.004391592 -0.01213625
vn 0.999923 0.002369996 -0.01218094
vn 0.6740109 0.001625533 -0.7387195
vn 0.6737721 -0.00397979 -0.7389285
vn 0.5668216 0.001750245 -0.8238388
vn 0.5658177 -0.002944518 -0.8245252
vn 0.9999231 0.002337327 0.01218368
vn 0.9999167 -0.004391592 0.01213625
vn -0.3501632 0.6359202 0.6877436
vn -0.3317816 0.6351455 0.6975036
vn -0.4303747 0.002483961 0.902647
vn -0.4526776 0.002518562 0.8916706
vn -0.3106006 0.7229094 0.6171947
vn -0.2975083 0.7264065 0.6195341
vn -0.8019779 0.580794 0.1396772
vn -0.6727695 0.7398521 0.0001337994
vn -0.3106006 0.7229094 0.6171947
vn -0.3501632 0.6359202 0.6877436
vn -0.309918 0.7253662 -0.6146501
vn -0.3496993 0.6388602 -0.6852503
vn -0.8022025 0.580597 -0.1392058
vn -0.04346965 0.9990547 0.0001127021
vn 0.0110562 0.9993029 -0.03566069
vn -0.2969098 0.7288875 -0.6169016
vn -0.2975083 0.7264065 0.6195341
vn 0.01094218 0.9992981 0.03582631
vn 0.5971265 0.8021134 -0.007359761
vn 0.596837 0.8023273 0.007523139
vn 0.6762874 0.7365966 -0.007803862
vn 0.3921934 0.7504825 -0.5319402
vn 0.5716674 0.6043983 -0.5548866
vn 0.4046749 0.5992961 -0.6907115
vn -0.331576 0.6378903 -0.6950923
vn 0.5668216 0.001750245 -0.8238388
vn 0.6740109 0.001625533 -0.7387195
vn 0.6763906 0.7365011 0.007864393
vn 0.5756021 0.599991 0.5556016
vn 0.3971145 0.7463663 0.5340762
vn -0.3317816 0.6351455 0.6975036
vn 0.4071226 0.5934231 0.6943343
vn -0.996159 0.00175678 0.08754578
vn -0.9961805 0.001757385 -0.08729954
vn -0.8022025 0.580597 -0.1392058
vn -0.8019779 0.580794 0.1396772
vn -0.6727695 0.7398521 0.0001337994
vn -0.3501632 0.6359202 0.6877436
vn -0.4526776 0.002518562 0.8916706
vn -0.4540411 0.002526435 -0.8909771
vn -0.4318474 0.00248911 -0.9019433
vn -0.331576 0.6378903 -0.6950923
vn -0.3496993 0.6388602 -0.6852503
vn -0.2969098 0.7288875 -0.6169016
vn -0.309918 0.7253662 -0.6146501
vn -0.8022025 0.580597 -0.1392058
vn -0.9961805 0.001757385 -0.08729954
vn 0.4046749 0.5992961 -0.6907115
vn 0.5668216 0.001750245 -0.8238388
vn 0.4071226 0.5934231 0.6943343
vn 0.5756021 0.599991 0.5556016
vn 0.6740301 0.00162256 0.7387021
vn 0.5671895 0.001726076 0.8235855
vn 0.3971145 0.7463663 0.5340762
vn -0.3317816 0.6351455 0.6975036
vn -0.4303747 0.002483961 0.902647
vn 0.9999231 0.002337327 0.01218368
vn 0.6763906 0.7365011 0.007864393
vn 0.6763906 0.7365011 0.007864393
vn 0.6762874 0.7365966 -0.007803862
vn 0.999923 0.002369996 -0.01218094
vn 0.9999231 0.002337327 0.01218368
vn 0.6740109 0.001625533 -0.7387195
vn 0.5716674 0.6043983 -0.5548866
vn -0.4526776 0.002518562 0.8916706
vn -0.4303747 0.002483961 0.902647
vn -0.4306294 -0.002622491 0.902525
vn -0.4524297 -0.003746865 0.8917922
g SM_training_wall_D_0
f 3/3/3 2/2/2 1/1/1
f 4/4/4 3/3/3 1/1/1
f 5/5/5 1/1/1 2/2/2
f 6/6/6 5/5/5 2/2/2
f 5/5/5 6/6/6 7/7/7
f 6/6/6 8/8/8 7/7/7
f 11/11/11 10/10/10 9/9/9
f 12/12/12 11/11/11 9/9/9
f 9/9/9 13/13/13 12/12/12
f 16/16/16 15/15/15 14/14/14
f 17/17/17 16/16/16 14/14/14
f 16/16/16 18/18/18 15/15/15
f 21/21/21 20/20/20 19/19/19
f 22/22/22 21/21/21 19/19/19
f 22/22/22 23/23/23 21/21/21
f 24/24/24 23/23/23 22/22/22
f 25/25/25 24/24/24 22/22/22
f 25/25/25 22/22/22 19/19/19
f 23/23/23 26/26/26 21/21/21
f 21/21/21 26/26/26 27/27/27
f 26/26/26 23/23/23 28/28/28
f 23/23/23 29/29/29 28/28/28
f 23/23/23 24/24/24 29/29/29
f 19/19/19 20/20/20 30/30/30
f 30/30/30 20/20/20 31/31/31
f 20/20/20 32/32/32 31/31/31
f 32/32/32 20/20/20 21/21/21
f 27/27/27 32/32/32 21/21/21
f 33/33/33 19/19/19 30/30/30
f 34/34/34 25/25/25 19/19/19
f 37/37/37 36/36/36 35/35/35
f 38/38/38 37/37/37 35/35/35
f 39/39/39 35/35/35 36/36/36
f 40/40/40 39/39/39 36/36/36
f 43/43/43 42/42/42 41/41/41
f 43/43/43 44/44/44 42/42/42
f 47/47/47 46/46/46 45/45/45
f 48/48/48 47/47/47 45/45/45
f 47/47/47 48/48/48 49/49/49
f 48/48/48 50/50/50 49/49/49
f 51/51/51 49/49/49 50/50/50
f 52/52/52 51/51/51 50/50/50
f 55/55/55 54/54/54 53/53/53
f 56/56/56 55/55/55 53/53/53
f 55/55/55 56/56/56 57/57/57
f 56/56/56 58/58/58 57/57/57
f 53/53/53 54/54/54 59/59/59
f 60/60/60 53/53/53 59/59/59
f 63/63/63 62/62/62 61/61/61
f 64/64/64 63/63/63 61/61/61
f 61/61/61 62/62/62 65/65/65
f 62/62/62 66/66/66 65/65/65
f 69/69/69 68/68/68 67/67/67
f 70/70/70 69/69/69 67/67/67
f 68/68/68 69/69/69 71/71/71
f 68/68/68 71/71/71 72/72/72
f 73/73/73 68/68/68 72/72/72
f 69/69/69 74/74/74 71/71/71
f 74/74/74 75/75/75 71/71/71
f 75/75/75 76/76/76 71/71/71
f 69/69/69 77/77/77 74/74/74
f 77/77/77 78/78/78 74/74/74
f 78/78/78 75/75/75 74/74/74
f 79/79/79 75/75/75 78/78/78
f 76/76/76 75/75/75 79/79/79
f 80/80/80 79/79/79 78/78/78
f 81/81/81 79/79/79 80/80/80
f 79/79/79 81/81/81 82/82/82
f 82/82/82 76/76/76 79/79/79
f 81/81/81 83/83/83 82/82/82
f 82/82/82 84/84/84 76/76/76
f 84/84/84 82/82/82 83/83/83
f 84/84/84 85/85/85 76/76/76
f 84/84/84 83/83/83 86/86/86
f 83/83/83 87/87/87 86/86/86
f 88/88/88 81/81/81 80/80/80
f 89/89/89 88/88/88 80/80/80
f 90/90/90 89/89/89 80/80/80
f 90/90/90 80/80/80 78/78/78
f 77/77/77 90/90/90 78/78/78
f 90/90/90 77/77/77 91/91/91
f 92/92/92 90/90/90 91/91/91
f 95/95/95 94/94/94 93/93/93
f 96/96/96 95/95/95 93/93/93
f 97/97/97 95/95/95 96/96/96
f 96/96/96 93/93/93 98/98/98
f 93/93/93 99/99/99 98/98/98
f 102/102/102 101/101/101 100/100/100
f 103/103/103 102/102/102 100/100/100
f 104/104/104 102/102/102 103/103/103
f 105/105/105 104/104/104 103/103/103
f 106/106/106 103/103/103 100/100/100
f 107/107/107 106/106/106 100/100/100
f 102/102/102 108/108/108 101/101/101
f 108/108/108 109/109/109 101/101/101
f 112/112/112 111/111/111 110/110/110
f 113/113/113 112/112/112 110/110/110
f 110/110/110 111/111/111 114/114/114
f 110/110/110 115/115/115 113/113/113
f 115/115/115 116/116/116 113/113/113
f 111/111/111 112/112/112 117/117/117
f 118/118/118 111/111/111 117/117/117
f 121/121/121 120/120/120 119/119/119
f 122/122/122 121/121/121 119/119/119
f 120/120/120 121/121/121 123/123/123
f 124/124/124 120/120/120 123/123/123
f 127/127/127 126/126/126 125/125/125
f 128/128/128 127/127/127 125/125/125
