g sm_TraningPro_wall03_B_collision
v -0.04155396 -0.1295499 -0.0476329
v 8.029532 -0.1295499 -0.0476329
v 8.029532 1.14663 -0.04763293
v -0.04155396 1.14663 -0.04763293
v -0.04155396 0.300061 3.977859
v -0.04155396 1.329104 3.977859
v 8.029532 1.329104 3.977859
v 8.029532 0.3000608 3.977859
v 8.029532 1.181147 1.98893
v 8.029532 0.9010364 0.9944649
v -0.04155396 0.9010364 0.9944649
v -0.04155396 1.181147 1.98893
v 8.029532 0.9010364 2.983394
v -0.04155396 0.9010364 2.983394
v 8.029532 0.3000608 3.977859
v -0.04155396 0.300061 3.977859
v -0.04155396 -0.1295499 -0.0476329
v 8.029532 -0.1295499 -0.0476329
v 8.029532 2.034532 1.98893
v 8.029532 1.975259 0.9944648
v 8.029532 0.9010364 0.9944649
v 8.029532 1.181147 1.98893
v 8.029532 1.901025 2.983394
v 8.029532 0.9010364 2.983394
v 8.029532 1.329104 3.977859
v 8.029532 0.3000608 3.977859
v 8.029532 -0.1295499 -0.0476329
v 8.029532 1.14663 -0.04763293
v -0.04155396 2.034532 1.98893
v -0.04155396 1.975259 0.9944648
v 8.029532 1.975259 0.9944648
v 8.029532 2.034532 1.98893
v -0.04155396 1.901025 2.983394
v 8.029532 1.901025 2.983394
v -0.04155396 1.329104 3.977859
v 8.029532 1.329104 3.977859
v 8.029532 1.14663 -0.04763293
v -0.04155396 1.14663 -0.04763293
v -0.04155396 1.181147 1.98893
v -0.04155396 0.9010364 0.9944649
v -0.04155396 1.975259 0.9944648
v -0.04155396 2.034532 1.98893
v -0.04155396 0.9010364 2.983394
v -0.04155396 1.901025 2.983394
v -0.04155396 0.300061 3.977859
v -0.04155396 1.329104 3.977859
v -0.04155396 1.14663 -0.04763293
v -0.04155396 -0.1295499 -0.0476329
vt 1 0
vt 0 0
vt 0 1
vt 1 1
vt 0 0
vt 0 1
vt 1 1
vt 1 0
vt 1 0.5
vt 1 0.25
vt 0 0.25
vt 0 0.5
vt 1 0.75
vt 0 0.75
vt 1 1
vt 0 1
vt 0 0
vt 1 0
vt 1 0.5
vt 1 0.25
vt 0 0.25
vt 0 0.5
vt 1 0.75
vt 0 0.75
vt 1 1
vt 0 1
vt 0 0
vt 1 0
vt 1 0.5
vt 1 0.25
vt 0 0.25
vt 0 0.5
vt 1 0.75
vt 0 0.75
vt 1 1
vt 0 1
vt 0 0
vt 1 0
vt 1 0.5
vt 1 0.25
vt 0 0.25
vt 0 0.5
vt 1 0.75
vt 0 0.75
vt 1 1
vt 0 1
vt 0 0
vt 1 0
vn 0 0 -1
vn 0 0 -1
vn 0 0 -1
vn 0 0 -1
vn 0 0 1
vn 0 0 1
vn 0 0 1
vn 0 0 1
vn 0 -1 0
vn 0 -0.8642191 0.5031158
vn 0 -0.8642191 0.5031158
vn 0 -1 0
vn 0 -0.9174898 -0.3977592
vn 0 -0.9174898 -0.3977592
vn 0 -0.8558573 -0.5172121
vn 0 -0.8558573 -0.5172121
vn 0 -0.711023 0.7031687
vn 0 -0.711023 0.7031687
vn 1 0 0
vn 1 0 0
vn 1 0 0
vn 1 0 0
vn 1 0 0
vn 1 0 0
vn 1 0 0
vn 1 0 0
vn 1 0 0
vn 1 0 0
vn 0 0.999317 0.03695136
vn 0 0.9338894 -0.3575622
vn 0 0.9338894 -0.3575622
vn 0 0.999317 0.03695136
vn 0 0.9467909 0.3218495
vn 0 0.9467909 0.3218495
vn 0 0.8668673 0.498539
vn 0 0.8668673 0.498539
vn 0 0.7827151 -0.6223801
vn 0 0.7827151 -0.6223801
vn -1 0 0
vn -1 0 0
vn -1 0 0
vn -1 0 0
vn -1 0 0
vn -1 0 0
vn -1 0 0
vn -1 0 0
vn -1 0 0
vn -1 0 0
g sm_TraningPro_wall03_B_collision_0
f 3/3/3 2/2/2 1/1/1
f 4/4/4 3/3/3 1/1/1
f 7/7/7 6/6/6 5/5/5
f 8/8/8 7/7/7 5/5/5
f 11/11/11 10/10/10 9/9/9
f 12/12/12 11/11/11 9/9/9
f 12/12/12 9/9/9 13/13/13
f 14/14/14 12/12/12 13/13/13
f 14/14/14 13/13/13 15/15/15
f 16/16/16 14/14/14 15/15/15
f 10/10/10 11/11/11 17/17/17
f 18/18/18 10/10/10 17/17/17
f 21/21/21 20/20/20 19/19/19
f 22/22/22 21/21/21 19/19/19
f 22/22/22 19/19/19 23/23/23
f 24/24/24 22/22/22 23/23/23
f 24/24/24 23/23/23 25/25/25
f 26/26/26 24/24/24 25/25/25
f 20/20/20 21/21/21 27/27/27
f 28/28/28 20/20/20 27/27/27
f 31/31/31 30/30/30 29/29/29
f 32/32/32 31/31/31 29/29/29
f 32/32/32 29/29/29 33/33/33
f 34/34/34 32/32/32 33/33/33
f 34/34/34 33/33/33 35/35/35
f 36/36/36 34/34/34 35/35/35
f 30/30/30 31/31/31 37/37/37
f 38/38/38 30/30/30 37/37/37
f 41/41/41 40/40/40 39/39/39
f 42/42/42 41/41/41 39/39/39
f 42/42/42 39/39/39 43/43/43
f 44/44/44 42/42/42 43/43/43
f 44/44/44 43/43/43 45/45/45
f 46/46/46 44/44/44 45/45/45
f 40/40/40 41/41/41 47/47/47
f 48/48/48 40/40/40 47/47/47
