g sm_TraningPro_Stair_collision
v -0.07809738 -0.2862951 -1.273036
v -0.5673918 -0.5954902 -1.048861
v 1.145453 -0.6122314 -1.049101
v 0.6706589 -0.2947239 -1.273157
v -0.07809738 0.2725401 -1.273036
v 0.6706589 0.2641112 -1.273157
v 1.145453 0.5751573 -1.049101
v -0.5673918 0.5918987 -1.048861
v -0.07809738 -0.2862951 -1.273036
v 0.6706589 -0.2947239 -1.273157
v 0.6706589 0.2641112 -1.273157
v -0.07809738 0.2725401 -1.273036
v 0.5607208 0.9855841 -0.1192715
v 1.661177 0.9855843 -0.1202844
v 1.661177 -0.9781477 -0.1202844
v 0.5607208 -0.9781479 -0.1192715
v 1.145453 0.5751573 -1.049101
v 0.6706589 0.2641112 -1.273157
v 0.6706589 -0.2947239 -1.273157
v 1.145453 -0.6122314 -1.049101
v -0.5673918 -0.5954902 -1.048861
v -0.07809738 -0.2862951 -1.273036
v -0.07809738 0.2725401 -1.273036
v -0.5673918 0.5918987 -1.048861
v 1.68759 -0.9929576 -0.2567579
v 0.5607208 -0.9781479 -0.1192715
v 1.661177 -0.9781477 -0.1202844
v 1.68759 0.9707745 -0.2567579
v 1.68759 -0.9929576 -0.2567579
v 1.661177 -0.9781477 -0.1202844
v 1.661177 0.9855843 -0.1202844
v -1.329971 -0.9781487 0.1301025
v -0.4025026 -0.9781485 0.1286528
v -1.329839 -0.9781488 -0.7649926
v 0.5607208 -0.9781479 -0.1192715
v 1.687717 -1.000363 -0.7653109
v 0.5443525 -0.9781482 0.00565134
v -0.3810308 -0.9781483 0.004275099
v 1.687717 0.9633697 -0.7653109
v 1.687717 -1.000363 -0.7653109
v 1.68759 -0.9929576 -0.2567579
v 1.68759 0.9707745 -0.2567579
v 1.687717 -1.000363 -0.7653109
v 1.280281 -0.6676007 -0.7648154
v -0.7167205 -0.6504498 -0.7645697
v -1.329839 -0.9781488 -0.7649926
v -1.329839 0.9855836 -0.7649927
v -0.7167205 0.6491193 -0.7645698
v 1.280281 0.6319681 -0.7648156
v 1.687717 0.9633697 -0.7653109
v 1.687717 0.9633697 -0.7653109
v 1.280281 0.6319681 -0.7648156
v 1.280281 -0.6676007 -0.7648154
v 1.687717 -1.000363 -0.7653109
v -1.329839 -0.9781488 -0.7649926
v -0.7167205 -0.6504498 -0.7645697
v -0.7167205 0.6491193 -0.7645698
v -1.329839 0.9855836 -0.7649927
v 1.280281 -0.6676007 -0.7648154
v 1.145453 -0.6122314 -1.049101
v -0.5673918 -0.5954902 -1.048861
v -0.7167205 -0.6504498 -0.7645697
v -0.5673918 0.5918987 -1.048861
v 1.145453 0.5751573 -1.049101
v 1.280281 0.6319681 -0.7648156
v -0.7167205 0.6491193 -0.7645698
v 1.280281 0.6319681 -0.7648156
v 1.145453 0.5751573 -1.049101
v 1.145453 -0.6122314 -1.049101
v 1.280281 -0.6676007 -0.7648154
v -0.7167205 -0.6504498 -0.7645697
v -0.5673918 -0.5954902 -1.048861
v -0.5673918 0.5918987 -1.048861
v -0.7167205 0.6491193 -0.7645698
v -0.3810307 0.9855838 0.004275094
v 0.5443525 0.985584 0.00565134
v 0.5443525 -0.9781482 0.00565134
v -0.3810308 -0.9781483 0.004275099
v 0.5443525 0.985584 0.00565134
v -0.3810307 0.9855838 0.004275094
v -1.329839 0.9855836 -0.7649927
v -0.4025025 0.9855838 0.1286528
v -1.329971 0.9855837 0.1301025
v 0.5607208 0.9855841 -0.1192715
v 1.687717 0.9633697 -0.7653109
v 0.5607208 0.9855841 -0.1192715
v 0.5607208 -0.9781479 -0.1192715
v 0.5443525 0.985584 0.00565134
v 0.5443525 -0.9781482 0.00565134
v 0.5607208 0.9855841 -0.1192715
v 1.68759 0.9707745 -0.2567579
v 1.661177 0.9855843 -0.1202844
v -1.329971 0.9855837 0.1301025
v -0.4025025 0.9855838 0.1286528
v -0.4025026 -0.9781485 0.1286528
v -1.329971 -0.9781487 0.1301025
v -0.3810307 0.9855838 0.004275094
v -0.3810308 -0.9781483 0.004275099
v -0.4025025 0.9855838 0.1286528
v -0.3810308 -0.9781483 0.004275099
v -1.329839 -0.9781488 -0.7649926
v -0.4025026 -0.9781485 0.1286528
v -1.329839 0.9855836 -0.7649927
v -0.3810307 0.9855838 0.004275094
v -0.4025025 0.9855838 0.1286528
v -0.4025025 0.9855838 0.1286528
v -0.3810308 -0.9781483 0.004275099
v -0.4025026 -0.9781485 0.1286528
v 0.5607208 -0.9781479 -0.1192715
v -1.329839 -0.9781488 -0.7649926
v 0.5443525 -0.9781482 0.00565134
v -1.329839 0.9855836 -0.7649927
v 0.5607208 0.9855841 -0.1192715
v 0.5443525 0.985584 0.00565134
v 1.687717 -1.000363 -0.7653109
v 0.5607208 -0.9781479 -0.1192715
v 1.68759 -0.9929576 -0.2567579
v 0.5607208 0.9855841 -0.1192715
v 1.687717 0.9633697 -0.7653109
v 1.68759 0.9707745 -0.2567579
v -1.329971 -0.9781487 0.1301025
v -1.329839 -0.9781488 -0.7649926
v -1.329839 0.9855836 -0.7649927
v -1.329971 0.9855837 0.1301025
vt 0.122196 0.1779772
vt 0.1221307 0.1820872
vt 0.5331411 0.1882845
vt 0.5332106 0.1841627
vt 0.121062 0.3126035
vt 0.5320626 0.3172911
vt 0.5321021 0.3131692
vt 0.1211054 0.3084937
vt 0.122196 0.1779772
vt 0.5332106 0.1841627
vt 0.5320626 0.3172911
vt 0.121062 0.3126035
vt 0.4299601 0.2502179
vt 0.5326945 0.2513419
vt 0.5320978 0.2501109
vt 0.4293611 0.2485172
vt 0.5321021 0.3131692
vt 0.5320626 0.3172911
vt 0.5332106 0.1841627
vt 0.5331411 0.1882845
vt 0.1221307 0.1820872
vt 0.122196 0.1779772
vt 0.121062 0.3126035
vt 0.1211054 0.3084937
vt 0.5326542 0.2171368
vt 0.4293611 0.2485172
vt 0.5320978 0.2501109
vt 0.5323786 0.2843165
vt 0.5326542 0.2171368
vt 0.5320978 0.2501109
vt 0.5326945 0.2513419
vt 0.1211511 0.243736
vt 0.2238878 0.2453297
vt 0.1219348 0.1944169
vt 0.4293611 0.2485172
vt 0.5329324 0.2006497
vt 0.3266245 0.2469234
vt 0.2752561 0.2461265
vt 0.5322206 0.3008038
vt 0.5329324 0.2006497
vt 0.5326542 0.2171368
vt 0.5323786 0.2843165
vt 0.5329324 0.2006497
vt 0.5330715 0.1924062
vt 0.1220654 0.1861971
vt 0.1219348 0.1944169
vt 0.1212356 0.2961641
vt 0.1211488 0.3043838
vt 0.5321416 0.3090474
vt 0.5322206 0.3008038
vt 0.5322206 0.3008038
vt 0.5321416 0.3090474
vt 0.5330715 0.1924062
vt 0.5329324 0.2006497
vt 0.1219348 0.1944169
vt 0.1220654 0.1861971
vt 0.1211488 0.3043838
vt 0.1212356 0.2961641
vt 0.5330715 0.1924062
vt 0.5331411 0.1882845
vt 0.1221307 0.1820872
vt 0.1220654 0.1861971
vt 0.1211054 0.3084937
vt 0.5321021 0.3131692
vt 0.5321416 0.3090474
vt 0.1211488 0.3043838
vt 0.5321416 0.3090474
vt 0.5321021 0.3131692
vt 0.5331411 0.1882845
vt 0.5330715 0.1924062
vt 0.1220654 0.1861971
vt 0.1221307 0.1820872
vt 0.1211054 0.3084937
vt 0.1211488 0.3043838
vt 0.2758583 0.2485318
vt 0.3272256 0.2490939
vt 0.3266245 0.2469234
vt 0.2752561 0.2461265
vt 0.3272256 0.2490939
vt 0.2758583 0.2485318
vt 0.1212356 0.2961641
vt 0.2244911 0.2479698
vt 0.1217566 0.2468458
vt 0.4299601 0.2502179
vt 0.5322206 0.3008038
vt 0.4299601 0.2502179
vt 0.4293611 0.2485172
vt 0.3272256 0.2490939
vt 0.3266245 0.2469234
vt 0.4299601 0.2502179
vt 0.5323786 0.2843165
vt 0.5326945 0.2513419
vt 0.1217566 0.2468458
vt 0.2244911 0.2479698
vt 0.2238878 0.2453297
vt 0.1211511 0.243736
vt 0.2758583 0.2485318
vt 0.2752561 0.2461265
vt 0.2244911 0.2479698
vt 0.2752561 0.2461265
vt 0.1219348 0.1944169
vt 0.2238878 0.2453297
vt 0.1212356 0.2961641
vt 0.2758583 0.2485318
vt 0.2244911 0.2479698
vt 0.2244911 0.2479698
vt 0.2752561 0.2461265
vt 0.2238878 0.2453297
vt 0.4293611 0.2485172
vt 0.1219348 0.1944169
vt 0.3266245 0.2469234
vt 0.1212356 0.2961641
vt 0.4299601 0.2502179
vt 0.3272256 0.2490939
vt 0.5329324 0.2006497
vt 0.4293611 0.2485172
vt 0.5326542 0.2171368
vt 0.4299601 0.2502179
vt 0.5322206 0.3008038
vt 0.5323786 0.2843165
vt 0.1211511 0.243736
vt 0.1219348 0.1944169
vt 0.1212356 0.2961641
vt 0.1217566 0.2468458
vn -0.006066503 -0.5816387 -0.8134247
vn -0.006066503 -0.5816387 -0.8134247
vn -0.006066503 -0.5816387 -0.8134247
vn -0.006066503 -0.5816387 -0.8134247
vn 0.005806691 0.579554 -0.8149131
vn 0.005806692 0.579554 -0.8149132
vn 0.005806692 0.579554 -0.8149132
vn 0.005806692 0.579554 -0.8149132
vn -0.0001612469 0 -1
vn -0.0001612469 0 -1
vn -0.0001612469 0 -1
vn -0.0001612469 0 -1
vn 0.0009203816 0 0.9999996
vn 0.0009203816 0 0.9999996
vn 0.0009203816 0 0.9999996
vn 0.0009203816 0 0.9999996
vn 0.4267691 0 -0.9043605
vn 0.4267691 0 -0.9043605
vn 0.4267691 0 -0.9043605
vn 0.4267691 0 -0.9043605
vn -0.4165246 0 -0.9091245
vn -0.4165246 0 -0.9091245
vn -0.4165246 0 -0.9091245
vn -0.4165246 0 -0.9091245
vn 9.944996E-05 -0.9941613 0.107904
vn 9.944996E-05 -0.9941613 0.107904
vn 9.944997E-05 -0.9941613 0.107904
vn 0.9817818 0 0.1900115
vn 0.9817818 0 0.1900116
vn 0.9817818 0 0.1900115
vn 0.9817818 0 0.1900115
vn 2.469145E-07 -1 0
vn 2.469145E-07 -1 0
vn 2.469145E-07 -1 0
vn -0.007357321 -0.9997409 0.02154239
vn -0.007357322 -0.9997409 0.02154239
vn 1.643079E-07 -1 3.924082E-07
vn 1.643079E-07 -1 3.924082E-07
vn 1 0 0.000249636
vn 1 0 0.000249636
vn 1 0 0.000249636
vn 1 0 0.000249636
vn -0.0001013177 0.00142202 -0.999999
vn -0.0001013177 0.00142202 -0.999999
vn -0.0001013177 0.00142202 -0.999999
vn -0.0001013177 0.00142202 -0.999999
vn -0.0001235415 -0.001412869 -0.999999
vn -0.0001235415 -0.001412869 -0.999999
vn -0.0001235415 -0.001412869 -0.999999
vn -0.0001235415 -0.001412869 -0.999999
vn -0.001215838 0 -0.9999993
vn -0.001215838 0 -0.9999993
vn -0.001215838 0 -0.9999993
vn -0.001215839 0 -0.9999993
vn 0.0006897472 0 -0.9999998
vn 0.0006897472 0 -0.9999998
vn 0.0006897472 0 -0.9999998
vn 0.0006897471 0 -0.9999998
vn -0.008992651 -0.9816063 -0.1907045
vn -0.008992651 -0.9816063 -0.1907046
vn -0.008992651 -0.9816063 -0.1907045
vn -0.008992651 -0.9816063 -0.1907046
vn 0.008931817 0.9804806 -0.1964134
vn 0.008931815 0.9804806 -0.1964134
vn 0.008931816 0.9804806 -0.1964134
vn 0.008931816 0.9804806 -0.1964134
vn 0.9035326 0 -0.4285195
vn 0.9035326 0 -0.4285195
vn 0.9035326 0 -0.4285195
vn 0.9035326 0 -0.4285195
vn -0.8853005 0 -0.4650194
vn -0.8853005 0 -0.4650194
vn -0.8853005 0 -0.4650194
vn -0.8853005 0 -0.4650194
vn -0.001487213 0 0.9999989
vn -0.001487213 0 0.9999989
vn -0.001487213 0 0.9999989
vn -0.001487213 0 0.9999989
vn -1.64899E-07 1 0
vn -1.64899E-07 1 0
vn -1.64899E-07 1 0
vn 0 1 0
vn 0 1 0
vn 0.007357399 0.9997409 -0.0215419
vn 0.007357399 0.9997409 -0.0215419
vn 0.9915249 0 0.1299164
vn 0.9915249 0 0.1299165
vn 0.9915249 0 0.1299164
vn 0.9915249 0 0.1299164
vn -9.944969E-05 0.9941614 -0.1079029
vn -9.944969E-05 0.9941614 -0.1079029
vn -9.944969E-05 0.9941614 -0.1079028
vn 0.001563157 0 0.9999988
vn 0.001563157 0 0.9999988
vn 0.001563157 0 0.9999988
vn 0.001563157 0 0.9999988
vn 0.9854237 0 0.1701174
vn 0.9854237 0 0.1701174
vn 0.9854237 0 0.1701174
vn 1.295763E-06 -1 -1.003119E-06
vn 1.295763E-06 -1 -1.003119E-06
vn 1.295763E-06 -1 -1.003119E-06
vn -1.410749E-07 1 0
vn -1.410749E-07 1 0
vn -1.410748E-07 1 0
vn 0.9854237 0 0.1701174
vn 0.9854237 0 0.1701174
vn 0.9854237 0 0.1701174
vn 1.262156E-06 -1 -2.277538E-06
vn 1.262156E-06 -1 -2.277537E-06
vn 1.262156E-06 -1 -2.277538E-06
vn -6.310781E-07 1 1.138769E-06
vn -6.310781E-07 1 1.138769E-06
vn -6.310781E-07 1 1.138769E-06
vn -0.01136425 -0.9998294 0.01455548
vn -0.01136425 -0.9998294 0.01455548
vn -0.01136425 -0.9998294 0.01455548
vn 0.01136413 0.9998295 -0.01455533
vn 0.01136413 0.9998295 -0.01455533
vn 0.01136413 0.9998295 -0.01455533
vn -1 0 -0.0001474575
vn -1 0 -0.0001474575
vn -1 0 -0.0001474575
vn -1 0 -0.0001474575
g sm_TraningPro_Stair_collision_0
f 3/3/3 2/2/2 1/1/1
f 4/4/4 3/3/3 1/1/1
f 7/7/7 6/6/6 5/5/5
f 8/8/8 7/7/7 5/5/5
f 11/11/11 10/10/10 9/9/9
f 12/12/12 11/11/11 9/9/9
f 15/15/15 14/14/14 13/13/13
f 16/16/16 15/15/15 13/13/13
f 19/19/19 18/18/18 17/17/17
f 20/20/20 19/19/19 17/17/17
f 23/23/23 22/22/22 21/21/21
f 24/24/24 23/23/23 21/21/21
f 27/27/27 26/26/26 25/25/25
f 30/30/30 29/29/29 28/28/28
f 31/31/31 30/30/30 28/28/28
f 34/34/34 33/33/33 32/32/32
f 36/36/36 35/35/35 34/34/34
f 38/38/38 34/34/34 37/37/37
f 41/41/41 40/40/40 39/39/39
f 42/42/42 41/41/41 39/39/39
f 45/45/45 44/44/44 43/43/43
f 46/46/46 45/45/45 43/43/43
f 49/49/49 48/48/48 47/47/47
f 50/50/50 49/49/49 47/47/47
f 53/53/53 52/52/52 51/51/51
f 54/54/54 53/53/53 51/51/51
f 57/57/57 56/56/56 55/55/55
f 58/58/58 57/57/57 55/55/55
f 61/61/61 60/60/60 59/59/59
f 62/62/62 61/61/61 59/59/59
f 65/65/65 64/64/64 63/63/63
f 66/66/66 65/65/65 63/63/63
f 69/69/69 68/68/68 67/67/67
f 70/70/70 69/69/69 67/67/67
f 73/73/73 72/72/72 71/71/71
f 74/74/74 73/73/73 71/71/71
f 77/77/77 76/76/76 75/75/75
f 78/78/78 77/77/77 75/75/75
f 81/81/81 80/80/80 79/79/79
f 83/83/83 82/82/82 81/81/81
f 85/85/85 81/81/81 84/84/84
f 88/88/88 87/87/87 86/86/86
f 89/89/89 87/87/87 88/88/88
f 92/92/92 91/91/91 90/90/90
f 95/95/95 94/94/94 93/93/93
f 96/96/96 95/95/95 93/93/93
f 99/99/99 98/98/98 97/97/97
f 102/102/102 101/101/101 100/100/100
f 105/105/105 104/104/104 103/103/103
f 108/108/108 107/107/107 106/106/106
f 111/111/111 110/110/110 109/109/109
f 114/114/114 113/113/113 112/112/112
f 117/117/117 116/116/116 115/115/115
f 120/120/120 119/119/119 118/118/118
f 123/123/123 122/122/122 121/121/121
f 124/124/124 123/123/123 121/121/121
