g sm_TraningPro_GlassWall_8m_B01_collision
v 0.01421751 -0.0825042 -0.03771332
v 0.01421631 0.3054239 -0.03771668
v -7.912735 0.305424 -0.03771668
v -7.912734 -0.082504 -0.03771332
v 0.01421751 -0.0825042 -0.03771332
v -7.912734 -0.082504 -0.03771332
v -7.912737 0.476978 0.7707613
v 0.01421387 0.4769776 0.7707613
v -7.912737 0.476978 0.7707613
v -7.912736 0.7694876 0.6449649
v -7.912727 1.036591 1.516326
v -7.912727 0.730094 1.565832
v -7.912737 0.7143686 2.389665
v -7.912737 1.02535 2.428384
v -7.912738 0.6963659 3.329911
v -7.912738 0.4282121 3.187973
v -7.912738 0.1645083 3.547064
v 0.01421387 0.1645083 3.547066
v 0.01421143 0.4282125 3.187973
v -7.912738 0.4282121 3.187973
v 0.01421387 0.6963654 3.329913
v 0.01421507 0.2753153 3.820202
v -7.912738 0.2753151 3.8202
v -7.912738 0.6963659 3.329911
v 0.01421143 0.7694874 0.6449651
v -7.912736 0.7694876 0.6449649
v -7.912735 0.305424 -0.03771668
v 0.01421631 0.3054239 -0.03771668
v 0.01421507 0.2753153 3.820202
v 0.01421387 0.1645083 3.547066
v 0.01421875 -0.06185688 3.821409
v -7.912738 0.2753151 3.8202
v -7.912738 0.1645083 3.547064
v -7.912738 0.4282121 3.187973
v -7.912738 0.6963659 3.329911
v -7.912736 -0.06289478 3.819524
v 0.01421875 -0.06185688 3.821409
v 0.01421507 0.2753153 3.820202
v 0.01421387 1.02535 2.428385
v 0.01421141 0.7143685 2.389666
v 0.01421143 0.4282125 3.187973
v 0.01421387 0.6963654 3.329913
v 0.01422729 0.7300941 1.565831
v 0.01422729 1.03659 1.516327
v 0.01421143 0.7694874 0.6449651
v 0.01421387 0.4769776 0.7707613
v 0.01421751 -0.0825042 -0.03771332
v 0.01421631 0.3054239 -0.03771668
v -7.912737 0.476978 0.7707613
v -7.912734 -0.082504 -0.03771332
v -7.912735 0.305424 -0.03771668
v -7.912736 0.7694876 0.6449649
v 0.01421387 0.1645083 3.547066
v 0.01421507 0.2753153 3.820202
v 0.01421387 0.6963654 3.329913
v 0.01421143 0.4282125 3.187973
v 0.01421387 0.1645083 3.547066
v -7.912738 0.1645083 3.547064
v -7.912736 -0.06289478 3.819524
v 0.01421875 -0.06185688 3.821409
v 0.01421143 0.7694874 0.6449651
v 0.01422729 1.03659 1.516327
v -7.912727 1.036591 1.516326
v -7.912736 0.7694876 0.6449649
v -7.912737 1.02535 2.428384
v 0.01421387 1.02535 2.428385
v -7.912738 0.6963659 3.329911
v 0.01421387 0.6963654 3.329913
v -7.912737 0.476978 0.7707613
v -7.912727 0.730094 1.565832
v 0.01422729 0.7300941 1.565831
v 0.01421387 0.4769776 0.7707613
v 0.01421141 0.7143685 2.389666
v -7.912737 0.7143686 2.389665
v 0.01421143 0.4282125 3.187973
v -7.912738 0.4282121 3.187973
v -7.912727 0.730094 1.565832
v -7.912727 1.036591 1.516326
v -7.912737 1.02535 2.428384
v -7.912737 0.7143686 2.389665
vt 0.7707789 0.03856966
vt 0.7761457 0.03663239
vt 0.7761823 0.279286
vt 0.7708914 0.2773682
vt 0.7707789 0.03856966
vt 0.7708914 0.2773682
vt 0.7564085 0.280527
vt 0.7565938 0.03543708
vt 0.7564085 0.280527
vt 0.7608029 0.03613583
vt 0.7304766 0.03574399
vt 0.7292885 0.2828769
vt 0.6882849 0.2830368
vt 0.6849641 0.03572587
vt 0.6546355 0.03590576
vt 0.6610975 0.2815257
vt 0.6477804 0.2793121
vt 0.6475666 0.0365716
vt 0.6610944 0.03431961
vt 0.6610975 0.2815257
vt 0.6546418 0.2905042
vt 0.6394559 0.2901532
vt 0.6394904 0.03625206
vt 0.6546355 0.03590576
vt 0.7608448 0.2902413
vt 0.7608029 0.03613583
vt 0.7761823 0.279286
vt 0.7765428 0.2896499
vt 0.6394559 0.2901532
vt 0.6475666 0.0365716
vt 0.644336 0.03734658
vt 0.6394904 0.03625206
vt 0.6477804 0.2793121
vt 0.6610975 0.2815257
vt 0.6546355 0.03590576
vt 0.643752 0.2784574
vt 0.644336 0.03734658
vt 0.6394559 0.2901532
vt 0.6849917 0.2906756
vt 0.6884249 0.03282282
vt 0.6610944 0.03431961
vt 0.6546418 0.2905042
vt 0.7293987 0.03304944
vt 0.7304994 0.2906415
vt 0.7608448 0.2902413
vt 0.7565938 0.03543708
vt 0.7707789 0.03856966
vt 0.7765428 0.2896499
vt 0.7564085 0.280527
vt 0.7708914 0.2773682
vt 0.7761823 0.279286
vt 0.7608029 0.03613583
vt 0.6475666 0.0365716
vt 0.6394559 0.2901532
vt 0.6546418 0.2905042
vt 0.6610944 0.03431961
vt 0.6475666 0.0365716
vt 0.6477804 0.2793121
vt 0.643752 0.2784574
vt 0.644336 0.03734658
vt 0.7608448 0.2902413
vt 0.7304994 0.2906415
vt 0.7304766 0.03574399
vt 0.7608029 0.03613583
vt 0.6849641 0.03572587
vt 0.6849917 0.2906756
vt 0.6546355 0.03590576
vt 0.6546418 0.2905042
vt 0.7564085 0.280527
vt 0.7292885 0.2828769
vt 0.7293987 0.03304944
vt 0.7565938 0.03543708
vt 0.6884249 0.03282282
vt 0.6882849 0.2830368
vt 0.6610944 0.03431961
vt 0.6610975 0.2815257
vt 0.7292885 0.2828769
vt 0.7304766 0.03574399
vt 0.6849641 0.03572587
vt 0.6882849 0.2830368
vn 0.1710001 -0.5060356 -0.8453915
vn 0.1530082 0.0066327 -0.9882026
vn -0.1529879 0.006636984 -0.9882058
vn -0.1709509 -0.5060242 -0.8454083
vn -0.1709509 -0.5060242 -0.8454083
vn -0.1594195 -0.982002 -0.1012787
vn 0.1710001 -0.5060356 -0.8453915
vn 0.7419916 -0.6016786 0.2956879
vn -0.2012862 -0.8757237 0.4388529
vn 0.201246 -0.875733 0.4388526
vn 0.2010085 -0.804217 0.5593127
vn -0.2010054 -0.8042049 0.5593311
vn -0.1972703 -0.9227111 -0.3311927
vn 0.197234 -0.9227183 -0.3311945
vn 0.1983382 -0.9640172 -0.1770105
vn -0.1983905 -0.964004 -0.1770241
vn -0.194448 -0.7732579 -0.6035416
vn 0.1944647 -0.7732172 -0.6035882
vn 0.1971318 -0.8438385 -0.4990748
vn -0.1971089 -0.8438104 -0.4991313
vn 0.1919633 0.8468138 0.4960406
vn 0.1916978 0.7385605 0.6463593
vn -0.1917395 0.7385846 0.6463195
vn -0.1919904 0.8467869 0.4960763
vn -0.1974731 0.7951088 -0.5734164
vn -0.1877999 0.6193635 -0.7623124
vn -0.8097628 0.4852571 -0.329863
vn 0.1974418 0.7951173 -0.5734154
vn 0.1887989 0.6021293 0.7757547
vn -0.1917395 0.7385846 0.6463195
vn 0.1916978 0.7385605 0.6463593
vn -0.8233181 0.0004426449 0.56758
vn -0.8978696 -0.3387982 -0.2811512
vn -0.7378986 -0.6353285 -0.2277356
vn -0.6512521 0.7128788 0.2601432
vn -0.5493692 -0.7562435 0.3553719
vn 8.600203E-06 -0.9049189 0.4255841
vn -0.0001190502 0.0007853254 0.9999998
vn 0.6711777 0.7291706 0.1335308
vn 0.7454084 -0.6556433 -0.120409
vn 0.7371206 -0.6361281 -0.2280223
vn 0.6741863 0.6938089 0.2531843
vn 0.7456847 -0.6593487 0.09598687
vn 0.6739823 0.7312534 -0.1049592
vn 0.8752105 0.462499 -0.1417786
vn 0.7419916 -0.6016786 0.2956879
vn 1 5.687383E-06 1.812931E-06
vn 1 5.687383E-06 1.812931E-06
vn -0.7479439 -0.6324843 0.2013541
vn -1 -4.029145E-07 -2.179321E-06
vn -0.8097628 0.4852571 -0.329863
vn -0.6599904 0.7182848 -0.220181
vn 1 -2.609563E-06 -6.391422E-06
vn 1 -2.609563E-06 -6.391422E-06
vn 1 -2.609563E-06 -6.391422E-06
vn 1 -2.609563E-06 -6.391422E-06
vn 0.0001263739 -0.7695354 -0.6386042
vn -0.8978696 -0.3387982 -0.2811512
vn -0.5493692 -0.7562435 0.3553719
vn 8.600203E-06 -0.9049189 0.4255841
vn 0.8752105 0.462499 -0.1417786
vn 0.6739823 0.7312534 -0.1049592
vn -0.4107387 0.9025034 -0.1295435
vn -0.6599904 0.7182848 -0.220181
vn -0.426244 0.8898131 0.1629382
vn 0.6711777 0.7291706 0.1335308
vn -0.6512521 0.7128788 0.2601432
vn 0.6741863 0.6938089 0.2531843
vn -0.7479439 -0.6324843 0.2013541
vn -0.4916419 -0.861715 0.1254416
vn 0.7456847 -0.6593487 0.09598687
vn 0.7419916 -0.6016786 0.2956879
vn 0.7454084 -0.6556433 -0.120409
vn -0.4754757 -0.8652558 -0.1589191
vn 0.7371206 -0.6361281 -0.2280223
vn -0.7378986 -0.6353285 -0.2277356
vn -0.4916419 -0.861715 0.1254416
vn -0.4107387 0.9025034 -0.1295435
vn -0.426244 0.8898131 0.1629382
vn -0.4754757 -0.8652558 -0.1589191
g sm_TraningPro_GlassWall_8m_B01_collision_0
f 3/3/3 2/2/2 1/1/1
f 4/4/4 3/3/3 1/1/1
f 7/7/7 6/6/6 5/5/5
f 8/8/8 7/7/7 5/5/5
f 11/11/11 10/10/10 9/9/9
f 12/12/12 11/11/11 9/9/9
f 15/15/15 14/14/14 13/13/13
f 16/16/16 15/15/15 13/13/13
f 19/19/19 18/18/18 17/17/17
f 20/20/20 19/19/19 17/17/17
f 23/23/23 22/22/22 21/21/21
f 24/24/24 23/23/23 21/21/21
f 27/27/27 26/26/26 25/25/25
f 28/28/28 27/27/27 25/25/25
f 31/31/31 30/30/30 29/29/29
f 34/34/34 33/33/33 32/32/32
f 35/35/35 34/34/34 32/32/32
f 33/33/33 36/36/36 32/32/32
f 36/36/36 37/37/37 32/32/32
f 37/37/37 38/38/38 32/32/32
f 41/41/41 40/40/40 39/39/39
f 42/42/42 41/41/41 39/39/39
f 40/40/40 43/43/43 39/39/39
f 43/43/43 44/44/44 39/39/39
f 44/44/44 43/43/43 45/45/45
f 43/43/43 46/46/46 45/45/45
f 46/46/46 47/47/47 45/45/45
f 47/47/47 48/48/48 45/45/45
f 51/51/51 50/50/50 49/49/49
f 52/52/52 51/51/51 49/49/49
f 55/55/55 54/54/54 53/53/53
f 56/56/56 55/55/55 53/53/53
f 59/59/59 58/58/58 57/57/57
f 60/60/60 59/59/59 57/57/57
f 63/63/63 62/62/62 61/61/61
f 64/64/64 63/63/63 61/61/61
f 62/62/62 63/63/63 65/65/65
f 66/66/66 62/62/62 65/65/65
f 65/65/65 67/67/67 66/66/66
f 67/67/67 68/68/68 66/66/66
f 71/71/71 70/70/70 69/69/69
f 72/72/72 71/71/71 69/69/69
f 70/70/70 71/71/71 73/73/73
f 74/74/74 70/70/70 73/73/73
f 73/73/73 75/75/75 74/74/74
f 75/75/75 76/76/76 74/74/74
f 79/79/79 78/78/78 77/77/77
f 80/80/80 79/79/79 77/77/77
