g sm_TraningPro_Fence_8m
v 1.436531 -2.226132 0.03781528
v 2.113796 -2.246942 0.03781528
v 2.112953 -2.246393 0.9949514
v 1.436531 -2.226132 1.013848
v 2.113384 -2.336262 0.03781513
v 2.112953 -2.246393 0.9949514
v 2.112541 -2.335712 0.9949511
v 1.423882 -2.316749 0.03781521
v -1.329155 -1.249072 0.03781513
v -1.774727 -0.9277524 0.03781511
v -1.773977 -0.9282609 1.013848
v -1.329155 -1.249072 1.013848
v -2.27425 -0.4783931 1.013848
v -2.27425 -0.4783933 0.03781509
v -0.2141229 -1.873934 1.013847
v -0.2141229 -1.873934 0.03781517
v -1.329155 -1.249072 0.03781513
v -1.329155 -1.249072 1.013848
v 0.5933319 -2.129003 1.013847
v 0.5933321 -2.129003 0.03781509
v 1.423882 -2.31675 1.013847
v 1.423882 -2.316749 0.03781521
v 2.112541 -2.335712 0.9949511
v 2.113384 -2.336262 0.03781513
v -1.245494 -1.138524 0.03781528
v -1.245494 -1.138524 1.013848
v -1.716518 -0.8538991 1.013848
v -1.716518 -0.8538991 0.03781527
v -0.1528419 -1.684358 0.03781536
v -0.1528419 -1.684358 1.013848
v 0.6417924 -1.946498 0.03781528
v 0.6417924 -1.946498 1.013848
v 1.436531 -2.226132 0.03781528
v 1.436531 -2.226132 1.013848
v -2.204651 -0.4077936 0.03781525
v -2.204651 -0.4077934 1.013848
v -1.716518 -0.8538991 1.013848
v -1.773977 -0.9282609 1.013848
v -2.27425 -0.4783931 1.013848
v -0.1528419 -1.684358 1.013848
v -0.2141229 -1.873934 1.013847
v -1.329155 -1.249072 1.013848
v -1.245494 -1.138524 1.013848
v -1.245494 -1.138524 1.013848
v -1.329155 -1.249072 1.013848
v -1.773977 -0.9282609 1.013848
v -1.716518 -0.8538991 1.013848
v 0.6417924 -1.946498 1.013848
v 1.436531 -2.226132 1.013848
v 1.423882 -2.31675 1.013847
v 0.5933319 -2.129003 1.013847
v -0.1528419 -1.684358 1.013848
v 0.6417924 -1.946498 1.013848
v 0.5933319 -2.129003 1.013847
v -0.2141229 -1.873934 1.013847
v -2.27425 -0.4783933 0.03781509
v -2.204651 -0.4077936 0.03781525
v -2.204651 -0.4077934 1.013848
v -2.27425 -0.4783931 1.013848
v -1.774727 -0.9277524 0.03781511
v -1.716518 -0.8538991 0.03781527
v -1.329155 -1.249072 0.03781513
v -1.245494 -1.138524 0.03781528
v -0.1528419 -1.684358 0.03781536
v -1.245494 -1.138524 0.03781528
v -1.329155 -1.249072 0.03781513
v -0.2141229 -1.873934 0.03781517
v 0.6417924 -1.946498 0.03781528
v 0.5933321 -2.129003 0.03781509
v 0.6417924 -1.946498 0.03781528
v 0.5933321 -2.129003 0.03781509
v 1.423882 -2.316749 0.03781521
v 1.436531 -2.226132 0.03781528
v 2.112541 -2.335712 0.9949511
v 1.423882 -2.31675 1.013847
v 1.436531 -2.226132 1.013848
v 2.112953 -2.246393 0.9949514
vt 0.9379799 -0.4100581
vt 0.3875043 -1.506809
vt 0.9740947 1.033433
vt 0.9313731 1.050115
vt 2.611607 -2.152564
vt -2.032737 -8.229716
vt 9.026179 6.15223
vt 1.240059 0.112177
vt 0.2399263 -0.4101274
vt 0.4791869 0.6163086
vt 0.08414426 0.9151861
vt 0.2114979 1.044788
vt -0.0625977 0.7862289
vt 0.7232926 1.848923
vt 0.6902481 1.04801
vt 0.6899222 -0.410038
vt 0.2399263 -0.4101274
vt 0.2114979 1.044788
vt 0.8457309 1.047862
vt 0.8455577 -0.4100359
vt 0.9225937 1.047761
vt 0.922971 -0.4102228
vt 9.026179 6.15223
vt 0.9750875 -0.4107695
vt 0.1490947 -0.4072315
vt 0.1447742 1.047731
vt 0.04217327 1.091267
vt 0.07085689 -0.3995966
vt 0.6833795 -0.4100854
vt 0.6832752 1.047862
vt 0.8563957 -0.4100596
vt 0.8551338 1.047885
vt 0.9379799 -0.4100581
vt 0.9313731 1.050115
vt -0.0372327 -0.3911617
vt -0.09515716 1.134837
vt 0.1180711 -0.01103939
vt 1.206116 0.3734893
vt 1.66271 -0.4082747
vt -0.8225811 -5.9606
vt 0.7279568 0.4773701
vt -0.04376208 0.3644429
vt -0.2484889 -2.338808
vt -0.2484889 -2.338808
vt -0.04376208 0.3644429
vt 1.206116 0.3734893
vt 0.1180711 -0.01103939
vt -1.167992 -3.112894
vt 0.7368981 0.08965807
vt 0.3957515 1.98371
vt 0.4328643 0.2099252
vt -0.8225811 -5.9606
vt -1.167992 -3.112894
vt 0.4328643 0.2099252
vt 0.7279568 0.4773701
vt 0.7232926 1.848923
vt 3.356035 0.6346195
vt -0.09515716 1.134837
vt 1.66271 -0.4082747
vt 1.128018 3.502283
vt 2.187702 3.027593
vt 1.862473 4.982424
vt 1.246038 5.160361
vt 1.680263 5.571407
vt 1.246038 5.160361
vt 1.862473 4.982424
vt 1.482227 4.477994
vt 2.064348 -0.1644429
vt 0.7843726 0.03777064
vt 2.064348 -0.1644429
vt 0.7843726 0.03777064
vt 1.240059 0.112177
vt 1.087 0.305506
vt 9.026179 6.15223
vt 0.9225937 1.047761
vt 0.7368981 0.08965807
vt -2.032737 -8.229716
vn 0.1226059 0.6576031 -0.7433209
vn 0.5869602 0.5662867 -0.5786165
vn 0.5939802 0.5674168 0.5702856
vn 0.1328542 0.653008 0.7456073
vn 0.5687254 -0.5874028 -0.5757684
vn 0.5939802 0.5674168 0.5702856
vn 0.5749583 -0.5893795 0.5674986
vn -0.09080559 -0.7220112 -0.6858966
vn -0.386921 -0.6065913 -0.6945063
vn -0.451267 -0.559557 -0.6951649
vn -0.451199 -0.5595452 0.6952184
vn -0.3869217 -0.6065926 0.6945049
vn -0.817796 -0.02456079 0.5749838
vn -0.8177986 -0.02456069 -0.57498
vn -0.2893958 -0.6688002 0.684804
vn -0.2893955 -0.6687992 -0.684805
vn -0.386921 -0.6065913 -0.6945063
vn -0.3869217 -0.6065926 0.6945049
vn -0.187008 -0.691436 0.6978139
vn -0.1870078 -0.6914349 -0.6978151
vn -0.0816543 -0.7199152 0.6892421
vn -0.09080559 -0.7220112 -0.6858966
vn 0.5749583 -0.5893795 0.5674986
vn 0.5687254 -0.5874028 -0.5757684
vn 0.3366567 0.6112682 -0.7162496
vn 0.3366562 0.6112673 0.7162505
vn 0.4093015 0.5474481 0.7299129
vn 0.4093018 0.5474485 -0.7299125
vn 0.2629756 0.6380029 -0.7237376
vn 0.2629752 0.6380019 0.7237387
vn 0.2288312 0.6713828 -0.7048982
vn 0.228831 0.6713817 0.7048992
vn 0.1226059 0.6576031 -0.7433209
vn 0.1328542 0.653008 0.7456073
vn -0.02122766 0.814792 -0.5793645
vn -0.02122795 0.8147922 0.5793644
vn 0.4093015 0.5474481 0.7299129
vn -0.451199 -0.5595452 0.6952184
vn -0.817796 -0.02456079 0.5749838
vn 0.2629752 0.6380019 0.7237387
vn -0.2893958 -0.6688002 0.684804
vn -0.3869217 -0.6065926 0.6945049
vn 0.3366562 0.6112673 0.7162505
vn 0.3366562 0.6112673 0.7162505
vn -0.3869217 -0.6065926 0.6945049
vn -0.451199 -0.5595452 0.6952184
vn 0.4093015 0.5474481 0.7299129
vn 0.228831 0.6713817 0.7048992
vn 0.1328542 0.653008 0.7456073
vn -0.0816543 -0.7199152 0.6892421
vn -0.187008 -0.691436 0.6978139
vn 0.2629752 0.6380019 0.7237387
vn 0.228831 0.6713817 0.7048992
vn -0.187008 -0.691436 0.6978139
vn -0.2893958 -0.6688002 0.684804
vn -0.8177986 -0.02456069 -0.57498
vn -0.02122766 0.814792 -0.5793645
vn -0.02122795 0.8147922 0.5793644
vn -0.817796 -0.02456079 0.5749838
vn -0.451267 -0.559557 -0.6951649
vn 0.4093018 0.5474485 -0.7299125
vn -0.386921 -0.6065913 -0.6945063
vn 0.3366567 0.6112682 -0.7162496
vn 0.2629756 0.6380029 -0.7237376
vn 0.3366567 0.6112682 -0.7162496
vn -0.386921 -0.6065913 -0.6945063
vn -0.2893955 -0.6687992 -0.684805
vn 0.2288312 0.6713828 -0.7048982
vn -0.1870078 -0.6914349 -0.6978151
vn 0.2288312 0.6713828 -0.7048982
vn -0.1870078 -0.6914349 -0.6978151
vn -0.09080559 -0.7220112 -0.6858966
vn 0.1226059 0.6576031 -0.7433209
vn 0.5749583 -0.5893795 0.5674986
vn -0.0816543 -0.7199152 0.6892421
vn 0.1328542 0.653008 0.7456073
vn 0.5939802 0.5674168 0.5702856
g sm_TraningPro_Fence_8m_0
f 3/3/3 2/2/2 1/1/1
f 4/4/4 3/3/3 1/1/1
f 1/1/1 2/2/2 5/5/5
f 5/5/5 2/2/2 6/6/6
f 7/7/7 5/5/5 6/6/6
f 8/8/8 1/1/1 5/5/5
f 11/11/11 10/10/10 9/9/9
f 12/12/12 11/11/11 9/9/9
f 10/10/10 11/11/11 13/13/13
f 14/14/14 10/10/10 13/13/13
f 17/17/17 16/16/16 15/15/15
f 18/18/18 17/17/17 15/15/15
f 15/15/15 16/16/16 19/19/19
f 16/16/16 20/20/20 19/19/19
f 19/19/19 20/20/20 21/21/21
f 20/20/20 22/22/22 21/21/21
f 21/21/21 22/22/22 23/23/23
f 22/22/22 24/24/24 23/23/23
f 27/27/27 26/26/26 25/25/25
f 28/28/28 27/27/27 25/25/25
f 25/25/25 26/26/26 29/29/29
f 26/26/26 30/30/30 29/29/29
f 29/29/29 30/30/30 31/31/31
f 30/30/30 32/32/32 31/31/31
f 31/31/31 32/32/32 33/33/33
f 32/32/32 34/34/34 33/33/33
f 27/27/27 28/28/28 35/35/35
f 36/36/36 27/27/27 35/35/35
f 38/38/38 37/37/37 36/36/36
f 39/39/39 38/38/38 36/36/36
f 42/42/42 41/41/41 40/40/40
f 43/43/43 42/42/42 40/40/40
f 46/46/46 45/45/45 44/44/44
f 47/47/47 46/46/46 44/44/44
f 50/50/50 49/49/49 48/48/48
f 51/51/51 50/50/50 48/48/48
f 54/54/54 53/53/53 52/52/52
f 55/55/55 54/54/54 52/52/52
f 58/58/58 57/57/57 56/56/56
f 59/59/59 58/58/58 56/56/56
f 60/60/60 56/56/56 57/57/57
f 61/61/61 60/60/60 57/57/57
f 62/62/62 60/60/60 61/61/61
f 63/63/63 62/62/62 61/61/61
f 66/66/66 65/65/65 64/64/64
f 67/67/67 66/66/66 64/64/64
f 67/67/67 64/64/64 68/68/68
f 69/69/69 67/67/67 68/68/68
f 72/72/72 71/71/71 70/70/70
f 73/73/73 72/72/72 70/70/70
f 76/76/76 75/75/75 74/74/74
f 77/77/77 76/76/76 74/74/74
